<svg xmlns="http://www.w3.org/2000/svg" viewBox="0 0 750 500"><g id="freepik--background-complete--inject-36"><path d="M679.27,304.22l-13.13.28-6.66.11c-2.22.05-4.46,0-6.69.06h-.45v-.45L652.29,293v-.5h.51l13.24.06c4.41,0,8.82.11,13.24.16h.27V293c0,1.9-.09,3.79-.13,5.66Zm0,0-.15-5.65c0-1.86-.11-3.7-.13-5.54l.28.28c-4.42.05-8.83.16-13.24.16l-13.24.06.5-.5-.06,11.19-.44-.44c2.18,0,4.35,0,6.54.05l6.58.12Z" style="fill:#ebebeb"></path><path d="M664.5,318.33l-13.13.28-6.66.11c-2.23,0-4.46,0-6.7.06h-.44v-.45l-.05-11.19v-.5h.5l13.25.07c4.41,0,8.82.11,13.24.16h.27v.27c0,1.9-.09,3.79-.13,5.66Zm0,0-.15-5.65c0-1.86-.11-3.7-.13-5.54l.28.28c-4.42.05-8.83.16-13.24.16l-13.25.06.5-.5,0,11.19-.45-.44c2.19,0,4.36,0,6.55.05l6.58.12Z" style="fill:#ebebeb"></path><path d="M694,318.33l-13.13.28-6.66.11c-2.22,0-4.46,0-6.69.06h-.45v-.45l-.05-11.19v-.5h.5l13.24.07c4.41,0,8.83.11,13.24.16h.27v.27c0,1.9-.08,3.79-.13,5.66Zm0,0-.14-5.65c0-1.86-.12-3.7-.13-5.54l.27.28c-4.41.05-8.83.16-13.24.16l-13.24.06.5-.5L668,318.33l-.44-.44c2.18,0,4.36,0,6.54.05l6.58.12Z" style="fill:#ebebeb"></path><path d="M82.44,317.82l-13.12.28-6.66.11c-2.23.05-4.47,0-6.7.06h-.44v-.45l-.06-11.19v-.5H56l13.24.07c4.42,0,8.83.11,13.24.16h.28v.27c0,1.9-.08,3.79-.13,5.66Zm0,0-.14-5.65c0-1.86-.11-3.71-.13-5.54l.27.28c-4.41,0-8.82.16-13.24.16L56,307.13l.5-.5-.05,11.19-.45-.44c2.18,0,4.36,0,6.55.05l6.58.11Z" style="fill:#ebebeb"></path><path d="M112,317.82l-13.13.28-6.66.11c-2.23.05-4.46,0-6.69.06h-.45v-.45l0-11.19v-.5h.5l13.25.07c4.41,0,8.82.11,13.24.16h.27v.27c0,1.9-.09,3.79-.13,5.66Zm0,0-.15-5.65c0-1.86-.11-3.71-.13-5.54l.28.28c-4.42,0-8.83.16-13.24.16l-13.25.06.5-.5,0,11.19-.45-.44c2.19,0,4.36,0,6.55.05l6.58.11Z" style="fill:#ebebeb"></path><path d="M600.36,198.12l-13.12.28-6.66.11c-2.23.05-4.47,0-6.7.06h-.44v-.45l-.06-11.19v-.5h.5l13.24.07c4.42,0,8.83.11,13.24.16h.28v.27c0,1.9-.09,3.79-.14,5.66Zm0,0-.14-5.65c0-1.86-.11-3.71-.13-5.54l.27.28c-4.41,0-8.82.15-13.24.16l-13.24.06.5-.5,0,11.19-.45-.44c2.18,0,4.36,0,6.55,0l6.58.11Z" style="fill:#ebebeb"></path><path d="M585.59,212.23l-13.12.28-6.67.11c-2.22,0-4.46,0-6.69.06h-.44v-.45l0-11.19v-.5h.5l13.24.07c4.41,0,8.83.11,13.24.16h.28V201c0,1.9-.08,3.79-.13,5.66Zm0,0-.14-5.65c-.05-1.86-.11-3.71-.13-5.54l.27.27c-4.41.06-8.83.16-13.24.17l-13.24.06.5-.5-.05,11.19-.45-.44c2.18,0,4.36,0,6.55.05l6.57.11Z" style="fill:#ebebeb"></path><path d="M615.13,212.23l-13.12.28-6.66.11c-2.23,0-4.46,0-6.7.06h-.44v-.45L588.15,201v-.5h.5l13.24.07c4.42,0,8.83.11,13.24.16h.28V201c0,1.9-.09,3.79-.13,5.66Zm0,0-.14-5.65c0-1.86-.11-3.71-.13-5.54l.27.27c-4.41.06-8.82.16-13.24.17l-13.24.06.5-.5,0,11.19-.45-.44c2.19,0,4.36,0,6.55.05l6.58.11Z" style="fill:#ebebeb"></path><path d="M339,129.24l-13.13.28-6.66.11c-2.22.05-4.46,0-6.69.06h-.44v-.45l-.05-11.19v-.5h.5l13.24.06c4.41,0,8.83.12,13.24.17h.28v.27c0,1.9-.08,3.79-.13,5.65Zm0,0-.14-5.65c-.05-1.87-.11-3.71-.13-5.54l.27.27c-4.41.05-8.83.16-13.24.17l-13.24.06.5-.5L313,129.24l-.44-.45c2.18,0,4.36,0,6.54.06l6.58.11Z" style="fill:#ebebeb"></path><path d="M677.74,62.38l-13.13.28-6.66.11c-2.23,0-4.46,0-6.69.06h-.45v-.45l0-11.19v-.5h.51l13.24.06c4.41,0,8.82.12,13.24.17H678v.27c0,1.9-.09,3.79-.13,5.65Zm0,0-.15-5.65c0-1.87-.11-3.71-.13-5.54l.28.27c-4.42,0-8.83.16-13.24.17l-13.24.06.49-.5,0,11.19-.44-.45c2.18,0,4.35,0,6.54.06l6.58.11Z" style="fill:#ebebeb"></path><path d="M692.51,76.49l-13.13.28-6.66.11c-2.22.05-4.46,0-6.69.05h-.45v-.45l-.05-11.19v-.5H666l13.24.06c4.41,0,8.82.12,13.24.17h.27v.27c0,1.9-.09,3.79-.13,5.65Zm0,0-.14-5.65c0-1.87-.12-3.71-.14-5.54l.28.27c-4.42.05-8.83.16-13.24.17L666,65.8l.5-.5-.06,11.19L666,76c2.18,0,4.35,0,6.54.06l6.58.11Z" style="fill:#ebebeb"></path><path d="M82.44,62.39l-13.12.28-6.66.11c-2.23,0-4.47,0-6.7.06h-.44v-.45L55.46,51.2v-.5H56l13.24.07c4.41,0,8.83.11,13.24.16h.28v.27c0,1.9-.08,3.79-.13,5.66Zm0,0-.14-5.65c0-1.87-.11-3.71-.13-5.54l.27.27c-4.41.06-8.83.16-13.24.17L56,51.7l.5-.5-.05,11.19L56,62c2.18,0,4.36,0,6.55,0l6.58.11Z" style="fill:#ebebeb"></path><path d="M385.06,71.19h69.38v69.38H385.06Zm66.11,3.27H388.33V137.3h62.84Z" style="fill:#ebebeb"></path><rect x="400.5" y="83.8" width="21.72" height="48.98" transform="translate(822.73 216.57) rotate(180)" style="fill:#ebebeb"></rect><rect x="407.21" y="93.33" width="25.1" height="25.1" transform="translate(839.51 211.75) rotate(180)" style="fill:#c7c7c7"></rect><rect x="418.19" y="107.44" width="3.12" height="69.38" transform="translate(561.88 -277.62) rotate(90)" style="fill:#dbdbdb"></rect><rect x="498.78" y="69.4" width="16.41" height="47.4" transform="translate(413.88 600.08) rotate(-90)" style="fill:#c7c7c7"></rect><path d="M474.62,70.83H544v69.38H474.62Zm66.11,3.27H477.89v62.84h62.84Z" style="fill:#ebebeb"></path><rect x="496.76" y="92.97" width="25.1" height="25.1" transform="translate(1018.62 211.04) rotate(180)" style="fill:#ebebeb"></rect><rect x="507.75" y="107.08" width="3.12" height="69.38" transform="translate(651.08 -367.54) rotate(90)" style="fill:#dbdbdb"></rect><rect x="600.93" y="81.07" width="20.61" height="34.49" style="fill:#ebebeb"></rect><path d="M564,70.83h69.38v69.38H564Zm66.11,3.27H567.27v62.84h62.84Z" style="fill:#ebebeb"></path><rect x="586.14" y="92.97" width="25.1" height="25.1" transform="translate(1197.38 211.04) rotate(180)" style="fill:#c7c7c7"></rect><rect x="597.13" y="107.08" width="3.12" height="69.38" transform="translate(740.46 -456.92) rotate(90)" style="fill:#dbdbdb"></rect><rect x="85.38" width="1" height="111.57" style="fill:#c7c7c7"></rect><polygon points="119.29 143.77 116.6 149.68 55.15 149.68 52.47 143.77 78.63 125.67 93.13 125.67 119.29 143.77" style="fill:#ebebeb"></polygon><polygon points="94.94 108.22 93.13 125.67 78.63 125.67 76.82 108.22 94.94 108.22" style="fill:#dbdbdb"></polygon><polygon points="119.28 143.78 116.6 149.68 55.15 149.68 52.47 143.78 119.28 143.78" style="fill:#dbdbdb"></polygon><rect x="152.73" width="1" height="77.15" style="fill:#c7c7c7"></rect><polygon points="186.64 109.35 183.95 115.26 122.5 115.26 119.83 109.35 145.99 91.25 160.48 91.25 186.64 109.35" style="fill:#ebebeb"></polygon><polygon points="162.29 73.8 160.48 91.25 145.99 91.25 144.17 73.8 162.29 73.8" style="fill:#dbdbdb"></polygon><polygon points="186.64 109.36 183.95 115.26 122.5 115.26 119.82 109.36 186.64 109.36" style="fill:#dbdbdb"></polygon><polygon points="566.64 348.78 694.75 348.78 698.87 267.49 562.52 267.49 566.64 348.78" style="fill:#ebebeb"></polygon><path d="M685.36,304.7H572.53L571,276.48H687.17Zm-111.88-1H684.42l1.68-26.22H572Z" style="fill:#dbdbdb"></path><path d="M683.83,337.17H575.78l-1.27-25.48H685.42Zm-107.1-1H682.89l1.47-23.48H575.56Z" style="fill:#dbdbdb"></path><path d="M641.92,293.65H618l-.88-6.81H642.8Zm-23-1H641l.62-4.81h-23.4Z" style="fill:#dbdbdb"></path><path d="M641.92,327.83H618l-.88-6.8H642.8Zm-23-1H641l.62-4.8h-23.4Z" style="fill:#dbdbdb"></path><polygon points="584.4 348.78 583.16 357.63 580.66 375.43 575.77 375.43 575.77 348.78 584.4 348.78" style="fill:#ebebeb"></polygon><polygon points="584.4 348.78 583.16 357.63 575.77 357.63 575.77 348.78 584.4 348.78" style="fill:#dbdbdb"></polygon><polygon points="676.98 348.78 678.22 357.63 680.73 375.43 685.62 375.43 685.62 348.78 676.98 348.78" style="fill:#ebebeb"></polygon><polygon points="676.98 348.78 678.22 357.63 685.62 357.63 685.62 348.78 676.98 348.78" style="fill:#dbdbdb"></polygon></g><g id="freepik--Plant--inject-36"><path d="M84.51,210.59s-23.14-3.24-17.73-31.18C66.78,179.41,92.64,185.22,84.51,210.59Z" style="fill:#BA68C8"></path><path d="M84.51,210.59s-23.14-3.24-17.73-31.18C66.78,179.41,92.64,185.22,84.51,210.59Z" style="opacity:0.1"></path><path d="M83.34,204.76a44.55,44.55,0,0,0-1.57-4.17c0-.18,0-.35-.06-.53,0-.38-.07-.76-.1-1.15-.06-.83-.12-1.67-.16-2.5-.1-1.67-.21-3.34-.24-5a.07.07,0,0,0-.14,0c0,1.67,0,3.34,0,5,0,.83.08,1.67.13,2.5,0,.19,0,.37,0,.56a49.18,49.18,0,0,0-4.64-7.94c-.79-1.11-1.63-2.18-2.53-3.21s-1.89-2.06-2.83-3.1c-.06-.07-.16,0-.09.1a41.79,41.79,0,0,1,4.46,5.93c.7,1.06,1.36,2.15,2,3.27l-.21-.09c-.27-.11-.55-.23-.83-.33l-1.88-.72c-1.25-.46-2.49-.91-3.73-1.38-.07,0-.12.1,0,.13,1.23.49,2.45,1,3.67,1.53l1.79.77.9.38a2.67,2.67,0,0,0,.62.21c.46.84.92,1.68,1.35,2.54a61.19,61.19,0,0,1,2.83,6.67c0,.16.11.32.16.48a13.7,13.7,0,0,0-1.89-.92L78,202.71c-1.62-.75-3.23-1.5-4.79-2.38-.08-.05-.15.08-.07.12,1.59.87,3.15,1.8,4.75,2.66.79.43,1.59.85,2.41,1.25a7.83,7.83,0,0,0,2.17.87A27.43,27.43,0,0,1,84,211.79c.26,3.16.23,6.35.3,9.51,0,.06.08,0,.09,0,.23-2.87.36-5.77.37-8.65A25,25,0,0,0,83.34,204.76Z" style="fill:#263238"></path><path d="M79.78,188.33a27.92,27.92,0,0,0-.23,4.92,0,0,0,1,0,.07,0c.09-1.63.11-3.26.3-4.89C79.93,188.27,79.79,188.24,79.78,188.33Z" style="fill:#263238"></path><path d="M73.16,189.73a18.23,18.23,0,0,1-3-1.47c-.08,0-.15.08-.07.13a11.18,11.18,0,0,0,3,1.43C73.18,189.84,73.22,189.75,73.16,189.73Z" style="fill:#263238"></path><path d="M85.25,254.94c0-2.56-.07-5.11-.1-7.67,0-8.49-.11-17-.27-25.48q-.18-10.11-.47-20.22a.1.1,0,0,0-.06-.09c0-1.84,0-3.68,0-5.52,0-.05-.06-.07-.11-.07s-.12,0-.12.07l0,5.53a.1.1,0,0,0,0,.08c-.34,12-.65,24-.72,36,0,2.44,0,4.89,0,7.33q-.12,11.73-.09,23.47l0,3.74c0,7.16.08,14.31.08,21.47,0,.39.43.58.88.6s1.07-.19,1.07-.63c0-7.89.06-15.79.06-23.68C85.27,264.89,85.29,259.92,85.25,254.94Z" style="fill:#263238"></path><path d="M75.59,247.17s-11.13-8.25-21.7-2.67-12.22,27.05-12.22,27.05,15.51,2.22,25.28-7.08C76.37,255.51,75.59,247.17,75.59,247.17Z" style="fill:#BA68C8"></path><path d="M78.62,247.68a13.21,13.21,0,0,0-6.45-.84,8.82,8.82,0,0,0-1.36-.13l-1.57-.12c-1.08-.09-2.16-.15-3.25-.23-2.19-.17-4.39-.3-6.59-.52-.07,0-.09.13,0,.14,2.17.28,4.33.58,6.5.8,1.12.12,2.24.23,3.36.31l.82.08c-.34.08-.67.15-1,.25a25.62,25.62,0,0,0-5,2.05c-.88.15-1.75.4-2.61.6-1.38.33-2.75.68-4.12,1-2.7.71-5.38,1.5-8.06,2.29-.09,0,0,.15,0,.13,2.68-.66,5.38-1.26,8.06-1.9l3.91-.94,1-.23a32.22,32.22,0,0,0-7.91,6.88,42.66,42.66,0,0,0-5.5,8.67.07.07,0,0,0,.12.07,42.19,42.19,0,0,1,6.65-8.73c0,.15-.1.3-.14.45-.21.65-.42,1.31-.62,2-.42,1.31-.83,2.62-1.22,3.94,0,.09.1.12.13,0,.47-1.27.92-2.55,1.37-3.82l.66-1.88.33-1c0-.1.07-.2.11-.3a38.12,38.12,0,0,1,3.95-3.36,29.79,29.79,0,0,1,5.9-3.39c0,.19-.07.39-.11.57l-.33,1.52c-.21,1.06-.42,2.11-.62,3.17-.42,2.15-.68,4.33-1.09,6.49a.07.07,0,0,0,.14,0c.5-2.16,1.14-4.29,1.63-6.47.24-1.08.48-2.17.71-3.26.1-.51.2-1,.31-1.52,0-.29.12-.57.15-.86l.61-.25c2.92-1.08,6.15-1.86,9.26-1.26a9.1,9.1,0,0,1,6.7,5.36c.1.25.48.1.43-.15A8.61,8.61,0,0,0,78.62,247.68Z" style="fill:#263238"></path><path d="M61.58,256.85c-.31,1.41-.63,2.82-.94,4.23a32.16,32.16,0,0,0-.78,4.12,0,0,0,0,0,.09,0,30.8,30.8,0,0,0,.95-4.15c.27-1.39.55-2.78.82-4.17C61.74,256.8,61.6,256.76,61.58,256.85Z" style="fill:#263238"></path><path d="M50.82,260.44c-1.42.72-2.8,1.53-4.28,2.12-.09,0,0,.18.06.13a44.94,44.94,0,0,0,4.25-2.2S50.85,260.42,50.82,260.44Z" style="fill:#263238"></path><path d="M78.09,232s-13.6.86-19.93-8.11-4.91-21.78-4.91-21.78,14.29,1.74,20,8.18S78.09,232,78.09,232Z" style="fill:#BA68C8"></path><path d="M84.48,245.45c-.48-1.46-1.06-2.89-1.61-4.32s-1.09-2.74-1.69-4.08a83.89,83.89,0,0,0-4.08-8c-1-1.65-2-3.25-3-4.83,0-.25-.07-.49-.1-.73-.07-.42-.13-.84-.19-1.26-.14-.86-.29-1.72-.43-2.58-.32-1.88-.7-3.75-1-5.63,0-.09-.16-.08-.14,0,.27,1.85.46,3.72.72,5.58.12.91.24,1.82.38,2.73,0,.33.11.66.16,1a99.37,99.37,0,0,0-6.73-8.73l-1-1.11c0-.1-.08-.2-.12-.31l-.3-.78-.59-1.62c-.38-1.07-.72-2.14-1-3.24,0-.08-.16,0-.14,0,.28,1.12.57,2.24.9,3.34.15.53.33,1.06.52,1.58l.09.26c-1.74-1.89-3.55-3.72-5.38-5.52-.07-.07-.16,0-.1.1a96.65,96.65,0,0,1,9.64,11.81,8.8,8.8,0,0,0-1-.26c-1-.2-2.1-.35-3.16-.49-2.21-.28-4.42-.56-6.63-.91-.09,0-.13.12,0,.14,2.11.42,4.2.89,6.29,1.37,1,.23,2,.42,3,.62a17.65,17.65,0,0,1,2.39.68l.66.94c1,1.45,2,2.94,2.9,4.43l-1.39-.27c-1-.2-2.11-.39-3.16-.57-2.08-.34-4.16-.7-6.21-1.17a.07.07,0,0,0,0,.14c2.08.49,4.14,1.06,6.21,1.61,1,.26,2,.51,3,.73l1.52.33a3.52,3.52,0,0,0,.61.1c2,3.22,3.85,6.52,5.58,9.89.76,1.48,1.48,3,2.19,4.48s1.35,3.12,2,4.69C84.09,245.92,84.59,245.79,84.48,245.45Z" style="fill:#263238"></path><path d="M70.55,214.18c-.26-1.3-.53-2.59-.82-3.88,0-.09-.15-.05-.14,0,.26,1.27.51,2.55.74,3.83A37.79,37.79,0,0,0,71.1,218s0,0,0,0A27,27,0,0,0,70.55,214.18Z" style="fill:#263238"></path><path d="M62.61,213.8c-.63-.31-1.29-.56-2-.82l-1-.4-.53-.21a2.44,2.44,0,0,1-.57-.26c-.1-.07-.17.11-.07.12a3,3,0,0,1,.58.24l.52.23,1,.45a19,19,0,0,0,2,.79C62.64,214,62.69,213.84,62.61,213.8Z" style="fill:#263238"></path><path d="M92,221.33s8.23-15.38,20.76-17.76S133,214.07,133,214.07s-9.14,11.67-20.63,13.71S92,221.33,92,221.33Z" style="fill:#BA68C8"></path><path d="M121.17,210.46a33.67,33.67,0,0,0-9.82.12c.18-.11.37-.21.55-.3l2.78-1.43c1.93-1,3.87-2.07,5.88-2.88a.07.07,0,1,0,0-.12c-2,.91-4,1.67-6,2.58-1,.45-2,.92-2.91,1.43a20.74,20.74,0,0,0-1.9,1,34.21,34.21,0,0,0-8,2.64l1.57-1.7c1.17-1.28,2.32-2.62,3.6-3.79.07-.06,0-.16-.1-.1-1.32,1.19-2.7,2.3-4,3.53-.62.6-1.21,1.23-1.78,1.87-.29.32-.58.65-.85,1A33,33,0,0,0,83.45,237c0,.09.11.14.13.05a37.85,37.85,0,0,1,9.21-15.58,36.1,36.1,0,0,1,16.78-9.71,36.73,36.73,0,0,1,11.58-1A.13.13,0,0,0,121.17,210.46Z" style="fill:#263238"></path><path d="M133,214.07s-9.14,11.67-20.64,13.71c-8.76,1.55-16-3-18.91-5.27l-.63-1s5.93-5,17.15-7.88S133,214.07,133,214.07Z" style="opacity:0.1"></path><path d="M113.89,205a31.71,31.71,0,0,0-2.78,1.83A18.06,18.06,0,0,0,108.7,209a.07.07,0,0,0,.1.11c.84-.73,1.67-1.45,2.53-2.13a25.53,25.53,0,0,1,2.64-1.9C114.05,205.05,114,204.93,113.89,205Z" style="fill:#263238"></path><path d="M120.77,207.58l-1.4.55-1.4.58c-.1,0,0,.21,0,.16l1.4-.56c.47-.19.92-.41,1.39-.6C120.89,207.68,120.85,207.54,120.77,207.58Z" style="fill:#263238"></path><path d="M90.37,240.68s2.2,15.26,13.67,20.6,25.46,0,25.46,0S124,228.27,90.37,240.68Z" style="fill:#BA68C8"></path><path d="M121.6,251.35c-1.06-.12-2.11-.3-3.16-.49l-1.54-.29c-.26,0-.53-.12-.81-.16-.31-.29-.61-.58-.93-.86a46.08,46.08,0,0,0-7-5.09,40.72,40.72,0,0,0-4.21-2.16h.22l3.77.16c2.52.12,5,.18,7.56.34.09,0,.08-.14,0-.14-2.52-.17-5-.45-7.56-.67l-3.67-.32-1.89-.17-.48,0c-.65-.24-1.31-.48-2-.68a17.87,17.87,0,0,0-9.72-.54c-2.88.74-5.76,2.63-6.51,5.67,0,.11.14.18.18.08,1.08-2.55,3.9-3.83,6.45-4.35a15.33,15.33,0,0,1,5.19-.11,12.4,12.4,0,0,0,.58,2.31c.32,1.07.63,2.15,1,3.22.65,2.14,1.36,4.26,2,6.41a.07.07,0,1,0,.13,0c-.53-2.14-1-4.3-1.49-6.45l-.78-3.15a18.4,18.4,0,0,0-.58-2.17,30,30,0,0,1,3,.7,42.52,42.52,0,0,1,5.19,1.91c.17,1.08.42,2.16.67,3.23.31,1.35.66,2.68,1.08,4a.07.07,0,0,0,.13,0c0-.08,0-.16,0-.25h0c-.26-1.25-.53-2.49-.8-3.74-.21-1-.4-2-.62-3,1.42.64,2.82,1.34,4.18,2.12,0,.31.1.63.15.91.08.53.18,1.05.27,1.57.22,1.18.45,2.35.73,3.51a56.88,56.88,0,0,0,2,6.64.06.06,0,0,0,0,.09l.06.07c0,.06.13,0,.12-.07-.53-2.26-1.14-4.5-1.63-6.77-.25-1.13-.5-2.27-.73-3.4-.11-.57-.22-1.14-.32-1.71,0-.16-.06-.34-.08-.51a48.63,48.63,0,0,1,11.3,9.22c.08.09.25,0,.17-.14-.88-1.15-1.75-2.27-2.74-3.33-.57-.62-1.17-1.22-1.78-1.8l.19,0q.81.13,1.62.24c1.06.14,2.12.25,3.18.37C121.65,251.5,121.69,251.36,121.6,251.35Z" style="fill:#263238"></path><path d="M113.54,256.53h0c0-.13,0-.26-.07-.39s-.11-.33-.14-.5h0c-.24-1-.44-2-.62-3.07a.07.07,0,0,0-.13,0,12.42,12.42,0,0,0,.88,4,0,0,0,0,0,.08,0Z" style="fill:#263238"></path><path d="M103.93,256.28a.06.06,0,0,0-.06-.06c-.33-1.36-.64-2.71-.91-4.07-.15-.71-.3-1.43-.44-2.14l-.21-1.16a3.28,3.28,0,0,0-.25-1,.07.07,0,0,0-.13,0,6.8,6.8,0,0,0,.29,2c.14.75.29,1.49.45,2.23.33,1.51.71,3,1.13,4.49a.08.08,0,0,0,.16,0Z" style="fill:#263238"></path><path d="M120.55,247c-2.09-.29-4.19-.59-6.29-.85-.08,0-.12.13,0,.14,2.09.31,4.19.57,6.29.85C120.61,247.11,120.64,247,120.55,247Z" style="fill:#263238"></path><path d="M84.49,204.9s-7-30.79,26.08-43.26C110.57,161.64,119.73,202.18,84.49,204.9Z" style="fill:#BA68C8"></path><path d="M91.64,187.44l.35-.22c.63-.34,1.25-.7,1.87-1L97.7,184c2.53-1.41,5-2.88,7.56-4.27.08,0,0-.16-.07-.12-2.55,1.39-5.14,2.69-7.7,4l-3.8,2-1.55.81c1.11-2.09,2.29-4.14,3.58-6.12,1.73-2.64,3.63-5.15,5.6-7.61.09-.11-.06-.26-.16-.15A51.94,51.94,0,0,0,93.51,182c0-.11,0-.22,0-.32,0-.77,0-1.54.06-2.3,0-1.51,0-3,0-4.51a.07.07,0,0,0-.14,0c-.06,1.48-.24,2.95-.33,4.43q-.06,1.11-.09,2.22c0,.4,0,.85,0,1.29q-1,1.62-2,3.3a58.79,58.79,0,0,0-3,6.2c0-.77-.08-1.53-.12-2.3-.1-1.69-.31-3.36-.38-5a.07.07,0,0,0-.14,0c0,1.69,0,3.38,0,5.06,0,.85,0,1.69.11,2.53,0,.31,0,.63,0,.94A57.19,57.19,0,0,0,85.1,202c-.64,3.09-.9,6.18-1.23,9.31,0,0,0,0,0,0A50.1,50.1,0,0,1,85.66,203c.41-1.45.84-2.9,1.31-4.33,1.38-.65,2.7-1.46,4-2.2l4.15-2.27c2.76-1.51,5.51-3,8.36-4.39.09,0,0-.16-.07-.12-2.89,1.3-5.79,2.55-8.63,4-1.41.71-2.79,1.46-4.17,2.24-1.15.65-2.33,1.3-3.43,2,.33-1,.66-1.91,1-2.86A79.36,79.36,0,0,1,91.64,187.44Z" style="fill:#263238"></path><path d="M88.85,180.4c0-.09-.15-.09-.14,0,.12,1.76.18,3.51.36,5.26,0,.1.16.1.16,0C89.17,183.9,89,182.15,88.85,180.4Z" style="fill:#263238"></path><path d="M104.71,186.28c-2.07.83-4.16,1.62-6.22,2.49a0,0,0,0,0,0,.09c2.09-.78,4.15-1.64,6.23-2.45C104.84,186.38,104.8,186.24,104.71,186.28Z" style="fill:#263238"></path><path d="M107.86,172.07a54.61,54.61,0,0,0-5.89,3.16.09.09,0,0,0,.1.15c1.92-1.12,3.87-2.2,5.86-3.19C108,172.15,107.94,172,107.86,172.07Z" style="fill:#263238"></path><rect x="59.64" y="271.5" width="47.72" height="50.3" style="fill:#37474f"></rect><rect x="56.35" y="289.3" width="2.44" height="86.16" style="fill:#263238"></rect><rect x="107.94" y="289.3" width="2.44" height="86.16" style="fill:#263238"></rect><rect x="83.45" y="289.3" width="2.44" height="86.16" style="fill:#263238"></rect><rect x="57.57" y="318.58" width="51.59" height="6.96" style="fill:#263238"></rect></g><g id="freepik--Floor--inject-36"><polygon points="42.6 375.43 125.7 375.18 208.8 375.1 375 374.93 541.2 375.1 624.3 375.18 707.39 375.43 624.3 375.67 541.2 375.76 375 375.93 208.8 375.76 125.7 375.67 42.6 375.43" style="fill:#263238"></polygon></g><g id="freepik--Shadow--inject-36"><ellipse cx="375" cy="413.93" rx="324.96" ry="24.09" style="fill:#ebebeb"></ellipse></g><g id="freepik--character-2--inject-36"><path d="M204.4,374.26l185,.8c45-35.31,49.61-87.62,17.53-119.32-19.41-19.18-44.06-15.31-67.53-18.36h-.07c-8.18-1.07-16.2-3-23.81-7-24.17-12.75-37.8-42.83-58.13-68.13-2.54-3.18-5.18-6.26-8-9.23-16.73-17.86-50-18.44-67.41,6.66C137.76,223.46,158,318.4,204.4,374.26Z" style="fill:#c7c7c7"></path><path d="M200.29,228.33c4.85,75.89,92.5,104.22,147.24,81.49,47.6-19.77,32-64.89-8.15-72.44h-.07c-8.18-1.07-16.2-3-23.81-7-24.17-12.75-37.8-42.83-58.13-68.13C227.08,146.51,196.74,172.76,200.29,228.33Z" style="fill:#a6a6a6"></path><path d="M363.5,395.22c-2.67-1-62.94-49.15-64.08-52.44-.43-1.25,6.07-10.43,14.24-21.31,1.77-2.35,3.6-4.77,5.48-7.21,12.18-15.87,25.48-32.42,25.48-32.42L385,313.94l-26.59,31.54-5.83,6.93s14.83,28.77,15.69,32.51S366.17,396.19,363.5,395.22Z" style="fill:#f7a9a0"></path><path d="M363.5,395.22c-2.67-1-62.94-49.15-64.08-52.44-.52-1.52,9.19-14.77,19.72-28.52l39.3,31.22-5.83,6.93s14.83,28.77,15.69,32.51S366.17,396.19,363.5,395.22Z" style="fill:#fff"></path><path d="M363.5,395.22c-2.67-1-62.94-49.15-64.08-52.44-.43-1.25,6.07-10.43,14.24-21.31l38.95,30.94s14.83,28.77,15.69,32.51S366.17,396.19,363.5,395.22Z" style="fill:#BA68C8"></path><path d="M364.56,392.11c-9.9-8.32-50.64-40.95-61.06-48.43-.09-.06-.13,0-.05.07,9.64,8.46,50.64,40.76,61,48.53C364.65,392.44,364.77,392.29,364.56,392.11Z" style="fill:#263238"></path><path d="M366.15,379.65a10.38,10.38,0,0,0-8-2.36,10.08,10.08,0,0,0-6.57,3.59c-.05.06.06.15.12.1a12,12,0,0,1,14.36-1.2A.08.08,0,0,0,366.15,379.65Z" style="fill:#263238"></path><path d="M355.73,356.55c-4-3.29-9.83-5.61-15-4.31-.2.05-.12.33.05.37a72,72,0,0,1,14.61,4.49A.32.32,0,0,0,355.73,356.55Z" style="fill:#263238"></path><path d="M357.88,360.26c-4-3.29-9.83-5.61-15-4.31-.2.05-.12.34.05.37a72.16,72.16,0,0,1,14.61,4.49A.32.32,0,0,0,357.88,360.26Z" style="fill:#263238"></path><path d="M360,364c-4-3.28-9.83-5.6-15-4.31-.2,0-.12.34,0,.37a71.56,71.56,0,0,1,14.61,4.5A.33.33,0,0,0,360,364Z" style="fill:#263238"></path><path d="M362.17,367.69c-4-3.29-9.82-5.61-15-4.31-.2.05-.13.33,0,.36a71.45,71.45,0,0,1,14.62,4.5A.32.32,0,0,0,362.17,367.69Z" style="fill:#263238"></path><path d="M313.74,336.15c-4.55-3.62-10.17,3.44-5.61,7.06S318.3,339.76,313.74,336.15Z" style="fill:#fff"></path><path d="M368.72,349.25c-.69-3.33-4.59-3.73-7.26-3a27.16,27.16,0,0,0-11.94,7.4.14.14,0,0,0,0,.22.63.63,0,0,0,.47.91c4.47.31,9.21,1.19,13.64.12C366.25,354.3,369.37,352.4,368.72,349.25Zm-11.83,4.63c-2.2-.1-4.39-.3-6.59-.32a79.43,79.43,0,0,1,7.07-4.17,28.55,28.55,0,0,1,3.65-1.55c2-.63,8.62-.84,5.51,3.88C364.81,354.32,359.52,354,356.89,353.88Z" style="fill:#263238"></path><path d="M338.27,347.14c3.09,3.36,7.52,5.26,11.41,7.49a.63.63,0,0,0,.89-.5c.09,0,.17-.05.15-.16a27.08,27.08,0,0,0-5.81-12.79c-1.8-2.11-5.27-3.95-7.69-1.56S336.47,345.18,338.27,347.14Zm-.6-4.25c0-5.66,5.46-1.77,6.73-.17a30.12,30.12,0,0,1,2.18,3.32c1.39,2.38,2.42,4.91,3.56,7.4-1.85-1.21-3.78-2.25-5.66-3.4C342.23,348.68,337.65,346,337.67,342.89Z" style="fill:#263238"></path><path d="M425.85,252.21c-2.77,21-54.51,81.6-60.49,88.55L364,342.35l-42.8-32.9.5-.63,37.69-49.35L247,258.81l42.68-33.19s3.46,2,10.66.95c24.81-3.64,80.75-11.68,93.94-11.14C411.26,216.13,428.39,232.94,425.85,252.21Z" style="fill:#455a64"></path><path d="M372.91,241.13a50.8,50.8,0,0,0-3.89,5c-1.33,1.75-2.68,3.47-4,5.22l0,.06c.24-.52.47-1,.71-1.54.84-1.74,1.51-3.53,2.51-5.2.06-.1-.1-.19-.16-.09-1,1.65-2.2,3.22-3.08,5-.41.81-.8,1.64-1.16,2.48-.2.46-.4.92-.58,1.39a6.63,6.63,0,0,0-.25.67c-.59.81-1.18,1.63-1.75,2.46-1.27,1.84-2.39,3.78-3.68,5.6-.07.1.09.19.16.1,1.3-1.72,2.76-3.31,4.08-5s2.62-3.51,3.88-5.3,2.43-3.52,3.66-5.27a51.94,51.94,0,0,0,3.71-5.42A.07.07,0,0,0,372.91,241.13Z" style="fill:#263238"></path><path d="M266.29,176.87c8.65,17.21,26.5,41.06,39.58,50.11,5.63,3.89,31.58,7.63,47.57,7.77,6,.05,2.75-31.94-3.72-32.71-4.4-.53-27.79,1.05-31-.38-5.86-2.63-26.67-21.73-41.25-31.75C269.34,164.32,260.9,166.17,266.29,176.87Z" style="fill:#f7a9a0"></path><path d="M339.43,203.51c11.08-3,24.7-7.33,37.17-3.87a6.39,6.39,0,0,1,3.51,2.29c5.62,1.45,6.62,4.54,6.62,4.54,4.82,3,5.41,6.26,5.41,6.26s6.58,1.77,6.17,5.92c-.45,4.66-9.6,1.26-15.78,2.46C368.38,223.87,347,232.17,343,233.38Z" style="fill:#f7a9a0"></path><path d="M365.7,213.6a92.58,92.58,0,0,1,12.52-1.71,92.59,92.59,0,0,1,13.82,1,.11.11,0,0,0,0-.22,49,49,0,0,0-26.42.79C365.46,213.47,365.49,213.64,365.7,213.6Z" style="fill:#263238"></path><path d="M362.79,205.3c4.11-.48,11.33-1.29,23.94,1.33,0,0,.07-.06,0-.08a44.05,44.05,0,0,0-24-1.44C362.51,205.16,362.51,205.33,362.79,205.3Z" style="fill:#263238"></path><path d="M361.31,200.81c7-.55,11.51,0,18.79,1.17,0,0,.07-.07,0-.08-8.14-2.21-11.34-2.09-18.86-1.32C361,200.6,361,200.84,361.31,200.81Z" style="fill:#263238"></path><path d="M365.69,225.52c-1.7,1.09-1.14,2,2.44,2.33s18-1.31,18.16,3.77-20.16,6.17-26.15,6.11A37.22,37.22,0,0,1,343,233.38C346.85,232.18,358.09,228,365.69,225.52Z" style="fill:#f7a9a0"></path><path d="M309.55,194.19l-30.15,6.47s-9.19-13.4-14.54-26,6.4-11.3,21.09,0S309.55,194.19,309.55,194.19Z" style="fill:#BA68C8"></path><path d="M307.93,192.72l-.21-.19a1.64,1.64,0,0,0-.47,1.15,1.69,1.69,0,0,0,.29.94l.31-.07a1.38,1.38,0,0,1,.08-1.83Zm-42.41-23.5a1.67,1.67,0,1,0,1.67,1.67A1.68,1.68,0,0,0,265.52,169.22Zm0,3.05a1.38,1.38,0,1,1,1.38-1.38A1.38,1.38,0,0,1,265.52,172.27Zm13.27,3a1.67,1.67,0,1,0,1.66,1.66A1.67,1.67,0,0,0,278.79,175.28Zm0,3.05a1.39,1.39,0,1,1,1.37-1.39A1.39,1.39,0,0,1,278.79,178.33ZM293.7,185a1.67,1.67,0,1,0,1.67,1.67A1.67,1.67,0,0,0,293.7,185Zm0,3a1.37,1.37,0,0,1-1.37-1.37A1.38,1.38,0,1,1,293.7,188Zm-14.92,1.67a1.66,1.66,0,1,0,1.66,1.66A1.66,1.66,0,0,0,278.78,189.7Zm0,3a1.38,1.38,0,1,1,1.38-1.38A1.38,1.38,0,0,1,278.78,192.74Z" style="fill:#fff"></path><path d="M303.29,189.6c-6.57,1.13-13.07,2.71-19.52,4.43q-2.75.72-5.45,1.58c-.05,0,0,.09,0,.08,3.26-.63,6.51-1.39,9.75-2.14s6.51-1.53,9.75-2.37c1.83-.47,3.65-.94,5.47-1.45A.07.07,0,0,0,303.29,189.6Z" style="fill:#263238"></path><path d="M298.51,196.56l-19.11,4.1s-9.19-13.4-14.54-26c-1.15-2.71-1.51-4.78-1.21-6.24Z" style="opacity:0.1"></path><path d="M224.69,252.89c.19.2,71.89-12.56,72.57-13.41.94-1.2-12.13-56.22-25.93-72.63-3.45-4.11-14.43-3.83-19.35.32C227.62,187.7,224,252.18,224.69,252.89Z" style="fill:#BA68C8"></path><path d="M263.14,183.32a1.66,1.66,0,0,0-1.67,1.66,1.67,1.67,0,1,0,3.34,0A1.66,1.66,0,0,0,263.14,183.32Zm0,3.05a1.38,1.38,0,1,1,1.39-1.39A1.38,1.38,0,0,1,263.14,186.37Zm-1.52,30.87a1.67,1.67,0,1,0,1.67,1.67A1.68,1.68,0,0,0,261.62,217.24Zm0,3a1.38,1.38,0,1,1,1.38-1.37A1.37,1.37,0,0,1,261.62,220.28ZM234.39,230.4a1.67,1.67,0,1,0,1.67,1.67A1.67,1.67,0,0,0,234.39,230.4Zm0,3a1.38,1.38,0,1,1,1.39-1.38A1.38,1.38,0,0,1,234.39,233.45Zm13.37-44.19a1.67,1.67,0,1,0,1.68,1.66A1.67,1.67,0,0,0,247.76,189.26Zm0,3a1.38,1.38,0,1,1,1.39-1.38A1.37,1.37,0,0,1,247.76,192.3Zm-1.37,28.36a1.67,1.67,0,1,0,1.66,1.67A1.67,1.67,0,0,0,246.39,220.66Zm0,3a1.38,1.38,0,1,1,1.37-1.37A1.37,1.37,0,0,1,246.39,223.7Zm-11.46-28.32-.09.28a1.37,1.37,0,0,1-.17,2.74,1.35,1.35,0,0,1-.69-.19c0,.09-.06.18-.09.27a1.5,1.5,0,0,0,.78.21,1.66,1.66,0,0,0,.26-3.31Zm25.71,50a1.66,1.66,0,0,0-1.66,1.57l.3-.06a1.37,1.37,0,0,1,1.36-1.22,1.34,1.34,0,0,1,1.22.75l.29,0A1.66,1.66,0,0,0,260.64,245.34Zm-31.92-26.8c0,.12-.05.24-.07.36a1.35,1.35,0,0,1-.39,2c0,.12,0,.24-.07.36a1.67,1.67,0,0,0,.53-2.73Zm38.33-18.31a1.67,1.67,0,1,0,0,3.34,1.67,1.67,0,0,0,0-3.34Zm0,3.05a1.38,1.38,0,1,1,1.38-1.38A1.38,1.38,0,0,1,267.05,203.28Zm23.43,14.79a1.67,1.67,0,1,0,1.66,1.66A1.66,1.66,0,0,0,290.48,218.07Zm0,3a1.38,1.38,0,1,1,0-2.75,1.38,1.38,0,0,1,0,2.75Zm-11.7-31.41a1.66,1.66,0,1,0,1.66,1.66A1.66,1.66,0,0,0,278.78,189.7Zm0,3a1.38,1.38,0,1,1,1.38-1.38A1.38,1.38,0,0,1,278.78,192.74Zm-1.52,18.61a1.67,1.67,0,1,0,1.66,1.66A1.66,1.66,0,0,0,277.26,211.35Zm0,3.05a1.39,1.39,0,1,1,1.38-1.39A1.38,1.38,0,0,1,277.26,214.4Zm-16.62,17a1.67,1.67,0,1,0,1.66,1.67A1.67,1.67,0,0,0,260.64,231.41Zm0,3a1.38,1.38,0,1,1,1.37-1.37A1.37,1.37,0,0,1,260.64,234.45Zm15.09,8.74a1.64,1.64,0,0,0-1.47.92l.38-.07a1.33,1.33,0,0,1,1.09-.56,1.31,1.31,0,0,1,.73.22l.38-.07A1.58,1.58,0,0,0,275.73,243.19Zm2.57-65a1.36,1.36,0,0,1-.9-1.29,1.21,1.21,0,0,1,.06-.38l-.18-.34a1.59,1.59,0,0,0-.17.72,1.67,1.67,0,0,0,1.36,1.64Zm-12.78-9a1.67,1.67,0,1,0,1.67,1.67A1.68,1.68,0,0,0,265.52,169.22Zm0,3.05a1.38,1.38,0,1,1,1.38-1.38A1.38,1.38,0,0,1,265.52,172.27Zm-12.42,31a1.67,1.67,0,1,0,1.67,1.66A1.66,1.66,0,0,0,253.1,203.28Zm0,3.05a1.38,1.38,0,1,1,1.39-1.39A1.38,1.38,0,0,1,253.1,206.33Zm-2.67-33.6a1.66,1.66,0,0,0-1.67,1.66,1.67,1.67,0,1,0,1.67-1.66Zm0,3.05a1.38,1.38,0,1,1,1.38-1.39A1.38,1.38,0,0,1,250.43,175.78ZM237.7,209a1.67,1.67,0,1,0,1.67,1.66A1.66,1.66,0,0,0,237.7,209Zm0,3a1.38,1.38,0,1,1,1.38-1.38A1.38,1.38,0,0,1,237.7,212.08Zm9.52,28.06a1.68,1.68,0,0,0-1.67,1.68,1.67,1.67,0,0,0,3.34,0A1.68,1.68,0,0,0,247.22,240.14Zm0,3.05a1.38,1.38,0,1,1,1.38-1.37A1.38,1.38,0,0,1,247.22,243.19Zm-17.8.82a1.67,1.67,0,1,0,0,3.33,1.67,1.67,0,0,0,0-3.33Zm0,3.05a1.39,1.39,0,1,1,1.38-1.38A1.38,1.38,0,0,1,229.42,247.06Zm59.11-42.32a1.37,1.37,0,0,1-1-1.32,1.3,1.3,0,0,1,.28-.81c0-.1-.07-.21-.11-.32a1.62,1.62,0,0,0-.45,1.13,1.67,1.67,0,0,0,1.34,1.64C288.6,205,288.57,204.85,288.53,204.74Zm-11.27,24.14a1.67,1.67,0,1,0,1.66,1.67A1.66,1.66,0,0,0,277.26,228.88Zm0,3.05a1.39,1.39,0,1,1,1.38-1.38A1.38,1.38,0,0,1,277.26,231.93Zm14.11,3a1.68,1.68,0,0,0-1.67,1.68,1.67,1.67,0,0,0,3.34,0A1.68,1.68,0,0,0,291.37,234.93Zm0,3.06a1.39,1.39,0,1,1,1.38-1.38A1.38,1.38,0,0,1,291.37,238Z" style="fill:#fff"></path><path d="M254.44,176c-4.8,30.3-21.59,58.49-26,62.55-10.78,9.83-27.15,24.85-36.72,30.48-3.54,2.08-19.6-25.34-15.89-27.68,11.63-7.34,35.92-25.37,36.32-25.72,2.79-2.49,13-17.21,24.3-32.76S256.46,163.28,254.44,176Z" style="fill:#f7a9a0"></path><path d="M217.76,203.54l30.84.22s6.28-15,9-28.44-8.56-9.77-20.65,4.26S217.76,203.54,217.76,203.54Z" style="fill:#BA68C8"></path><path d="M250.43,172.73a1.66,1.66,0,0,0-1.67,1.66,1.67,1.67,0,1,0,1.67-1.66Zm0,3.05a1.38,1.38,0,1,1,1.38-1.39A1.38,1.38,0,0,1,250.43,175.78Zm-15.76,19.58a1.67,1.67,0,1,0,1.67,1.66A1.66,1.66,0,0,0,234.67,195.36Zm0,3a1.38,1.38,0,1,1,1.38-1.38A1.37,1.37,0,0,1,234.67,198.4Zm2-18.52-.23.27a1.38,1.38,0,1,1,0,2.75,1.36,1.36,0,0,1-1.35-1.16l-.23.27a1.66,1.66,0,0,0,1.58,1.18,1.66,1.66,0,0,0,.24-3.31ZM221,199.16a1.88,1.88,0,0,0-.18.24,1.35,1.35,0,0,1,.86,1.26,1.39,1.39,0,0,1-2.46.87l-.17.23a1.61,1.61,0,0,0,1.24.57,1.66,1.66,0,0,0,.71-3.17Zm26.75-9.9a1.67,1.67,0,1,0,1.68,1.66A1.67,1.67,0,0,0,247.76,189.26Zm0,3a1.38,1.38,0,1,1,1.39-1.38A1.37,1.37,0,0,1,247.76,192.3Z" style="fill:#fff"></path><path d="M223,197.77c6.66-.23,13.35,0,20,.37,1.88.11,3.77.26,5.65.45a0,0,0,1,1,0,.08c-3.33.05-6.66,0-10-.12s-6.68-.17-10-.34c-1.89-.09-3.77-.18-5.65-.32C222.89,197.89,222.88,197.77,223,197.77Z" style="fill:#263238"></path><path d="M255.15,189.42c0-.11,0-.18-.09-.08-.71,1.29-1.36,2.61-2,3.93.91-2.87,1.72-5.76,2.46-8.68a.11.11,0,0,0-.2-.07c-1.28,3.45-2.56,6.89-3.72,10.37-.58,1.72-2.87,8.67-3,8.81s-1.3,0-1.75,0c-.13,0-.14.21,0,.2.5,0,1.9.2,2.17.11s2.3-5.55,3-7.51c.22-.62.42-1.24.62-1.85h0C253.53,192.94,254.33,191.2,255.15,189.42Z" style="fill:#263238"></path><path d="M143.86,281.16a1.77,1.77,0,0,0,1.61.22c-.45,2.84-.11,5.22,1.91,6a3.22,3.22,0,0,0,3.43-1c0,1.45.56,2.46,1.9,2.74,2.35.49,5.74-3.75,8.63-8.33-1.48,3.45-2.13,6.55,0,7.08,5.55,1.39,10.95-9.55,15.64-16.45a26.87,26.87,0,0,1,5.1-5.83,7.31,7.31,0,0,1,1-.63,2.13,2.13,0,0,1,2.47-.05c1.19,1-.25,4.25-1.84,6-3,3.37-3.86,10.29-1.77,12.2,3.06,2.81,9-5.83,11.76-8.33,3.75-3.35,7.22-12,7.6-12.48,0,0-.91-1.56-3.34-5.16-4.64-6.89-12.29-17.08-17.46-18.28,0,0-16,6.13-28.87,16.53C147.21,258.9,138.94,278.2,143.86,281.16Z" style="fill:#f7a9a0"></path><path d="M171.61,264.11a20.49,20.49,0,0,0-6.45,6.93c-2.25,3.78-2.66,6.25-4.19,10.17a.09.09,0,0,0,.16.06c.73-1.86,3.43-7.95,4.34-9.68a19.62,19.62,0,0,1,6.17-7.43S171.64,264.09,171.61,264.11Z" style="fill:#263238"></path><path d="M165.66,259.6a46.41,46.41,0,0,0-7.3,7.59c-2.61,3.46-3.93,7.67-5.26,11.76-.8,2.45-1.55,4.92-2.23,7.41,0,.1.12.17.15.07,1.33-4.2,2.77-8.36,4.35-12.46a30.74,30.74,0,0,1,6.4-10.28c1.59-1.69,2.21-2.47,3.93-4C165.74,259.63,165.69,259.57,165.66,259.6Z" style="fill:#263238"></path><path d="M160.09,255.55c-3,2.28-5.7,4.25-7.78,7.45a45.65,45.65,0,0,0-4.84,11.4c-.71,2.27-1.34,4.56-1.93,6.86,0,.1.14.14.16.05a123.33,123.33,0,0,1,5.28-15,19.53,19.53,0,0,1,3.59-5.71,44.75,44.75,0,0,1,5.53-5S160.1,255.54,160.09,255.55Z" style="fill:#263238"></path><path d="M161.3,287.82a1.9,1.9,0,0,1-1.05-.94,2.8,2.8,0,0,1-.22-1.4,11.44,11.44,0,0,1,.65-2.82c.14-.46.31-.91.42-1.41,0,0,0-.07,0-.11s0,0,0-.09-.11-.13-.16-.11-.12.09-.16.11l-.06.08-.2.32-.37.63c-.48.84-1,1.67-1.52,2.47a11.58,11.58,0,0,1-4,4,2.8,2.8,0,0,1-2.58,0,1.78,1.78,0,0,1-1-2.13l.3-1-.75.78a3.41,3.41,0,0,1-2.16,1.05,2.15,2.15,0,0,1-2-1,5.73,5.73,0,0,1-.75-2.4,7.7,7.7,0,0,1,.1-2.54l.14-.61-.57.28a1.6,1.6,0,0,1-1.5-.21,2.09,2.09,0,0,1-1-1.34,10.9,10.9,0,0,1-.3-3.66,28.87,28.87,0,0,1,1.64-7.18,43.39,43.39,0,0,1,7.3-13.25,40.06,40.06,0,0,0-7.79,12.95,27.5,27.5,0,0,0-1.67,7.44,11.21,11.21,0,0,0,.29,3.86,3.93,3.93,0,0,0,.42.94,2.29,2.29,0,0,0,.77.72,2.11,2.11,0,0,0,2.1.23l-.43-.32a8,8,0,0,0-.12,2.76,6.05,6.05,0,0,0,.86,2.64,2.5,2.5,0,0,0,1.11,1,3.26,3.26,0,0,0,1.44.23,4,4,0,0,0,2.52-1.26l-.46-.25a2.47,2.47,0,0,0,.11,1.61,2.26,2.26,0,0,0,1.13,1.13,3.19,3.19,0,0,0,1.52.37,3.51,3.51,0,0,0,1.5-.38,12,12,0,0,0,4.06-4.26c.53-.82,1-1.67,1.49-2.52l.35-.64c.09-.2.37-.47.07-.38a14.21,14.21,0,0,1-.36,1.39,11.75,11.75,0,0,0-.55,2.87,2.85,2.85,0,0,0,.27,1.44A1.94,1.94,0,0,0,161.3,287.82Z" style="fill:#263238"></path><path d="M268.06,179.56c-3.33.38-10.71-5.37-13.78-10.44-.21-.35.17-4.13.41-8.74.14-2.81.22-5.93.1-8.78l18.09,3.55a45.69,45.69,0,0,0-1.24,11,6,6,0,0,0,.17,1.16c0,.06,0,.12,0,.2C272.31,169.75,273.27,179,268.06,179.56Z" style="fill:#f7a9a0"></path><path d="M271.81,167.35c0,.06,0,.11,0,.2a12.47,12.47,0,0,1-1.84.18c-10.19.22-13.23-12.07-13.91-15.87l16.79,3.29a45.78,45.78,0,0,0-1.26,11A8.28,8.28,0,0,0,271.81,167.35Z" style="fill:#263238"></path><path d="M249.28,129.61c-1.07,6.56,4.7,24.3,9.72,27.75,7.29,5,18,4.14,21.94-4.33,3.82-8.22-4.11-31.21-9.61-34.22C263.24,114.37,250.87,119.93,249.28,129.61Z" style="fill:#f7a9a0"></path><path d="M263.56,135a16.51,16.51,0,0,0,1.35-1c.52-.38,1-.63,1.2-1.25a.86.86,0,0,0-.43-1,2.14,2.14,0,0,0-2.12.38,3.15,3.15,0,0,0-1.35,1.81A.92.92,0,0,0,263.56,135Z" style="fill:#263238"></path><path d="M275.44,131.54a15.34,15.34,0,0,1-1.66.05,2.71,2.71,0,0,1-1.71-.27.86.86,0,0,1-.24-1,2.13,2.13,0,0,1,1.92-1,3.09,3.09,0,0,1,2.16.62A.91.91,0,0,1,275.44,131.54Z" style="fill:#263238"></path><path d="M268.49,148.8c.38.19.78.5,1.23.41a3.33,3.33,0,0,0,1.2-.68s.09,0,.07,0a1.66,1.66,0,0,1-1.34,1.1,1.34,1.34,0,0,1-1.26-.79C268.36,148.82,268.44,148.77,268.49,148.8Z" style="fill:#263238"></path><path d="M268.71,144.81a4.27,4.27,0,0,0,3.28,1,5.23,5.23,0,0,0,1.49-.36l.28-.11.25-.12a.31.31,0,0,0,.16-.34h0a.31.31,0,0,0-.05-.12h0l0-.1c-.25-.94-.75-2.33-.75-2.33.39.07,2.35.35,2.18-.13a64.75,64.75,0,0,0-5.21-12,.12.12,0,0,0-.21.1c1.2,3.84,3.07,7.46,4.34,11.3a7.49,7.49,0,0,0-2.11,0c-.12.07,1,2.66,1.09,3.09a.12.12,0,0,1,0,0,6,6,0,0,1-4.64-.09C268.68,144.63,268.61,144.74,268.71,144.81Z" style="fill:#263238"></path><path d="M272.8,145.17a5.08,5.08,0,0,1-1.51,2.08,2.32,2.32,0,0,1-1.31.47c-1,0-1.32-.85-1.36-1.66a5.45,5.45,0,0,1,.09-1.28A6.56,6.56,0,0,0,272.8,145.17Z" style="fill:#263238"></path><path d="M271.29,147.25a2.32,2.32,0,0,1-1.31.47c-1,0-1.32-.85-1.36-1.66A2.37,2.37,0,0,1,271.29,147.25Z" style="fill:#ff9bbc"></path><path d="M264.59,138a1.82,1.82,0,0,1,.2-1,1.37,1.37,0,0,1,.87-.65,1.22,1.22,0,0,1,1.06.28,2.31,2.31,0,0,1,.56.82,4,4,0,0,1,.16.57,2.56,2.56,0,0,1,0,1.23,3.53,3.53,0,0,0-.24-.86,5.43,5.43,0,0,0-.34-.73c-.28-.48-.67-.84-1.08-.72s-.67.5-.73,1.06a9,9,0,0,0,.05,1.71A3.67,3.67,0,0,1,264.59,138Z" style="fill:#263238"></path><path d="M276.29,134.25a1.89,1.89,0,0,0-.69-.72,1.35,1.35,0,0,0-1.08-.09,1.23,1.23,0,0,0-.75.81,2.18,2.18,0,0,0,0,1,2.94,2.94,0,0,0,.16.58,2.58,2.58,0,0,0,.65,1,4,4,0,0,1-.26-.85,5.76,5.76,0,0,1-.09-.8c0-.55.12-1.07.53-1.19a1.07,1.07,0,0,1,1.18.51,8.87,8.87,0,0,1,.87,1.48A3.9,3.9,0,0,0,276.29,134.25Z" style="fill:#263238"></path><path d="M248.77,145.11c5.14-.49,6.8-7,4.8-11.67,0,0,13.81-.44,12.67-11.39a10.81,10.81,0,0,0,9.59,3.42l2.17,3.75c1.32-.63,2.15-4.82-1.75-7.35,0,0-1.13-5.37-5.65-8a7.5,7.5,0,0,0-8.14.2,11.32,11.32,0,0,0-8.48-.66,9.67,9.67,0,0,0-6.17,6.34s-6.49,2.38-6.84,7.33a10,10,0,0,0,2.63,7.73s-1.38,2.14.15,6.06C244.73,143.43,247.23,145.25,248.77,145.11Z" style="fill:#263238"></path><path d="M265.78,121.13a12.59,12.59,0,0,1,.47,2.65,10.6,10.6,0,0,1-.07,2.64,6.94,6.94,0,0,1-2.48,4.41,11.31,11.31,0,0,1-4.78,2.08c-.88.11-1.76.3-2.65.36s-1.79.1-2.7.17c.9.07,1.8.1,2.71.15s1.81-.14,2.73-.2a11.08,11.08,0,0,0,5.09-2.07,7.26,7.26,0,0,0,2.57-4.84A11,11,0,0,0,265.78,121.13Z" style="fill:#263238"></path><path d="M247.81,119.79a12.73,12.73,0,0,0-4.81,1.9,7.7,7.7,0,0,0-3.2,4.14,8.5,8.5,0,0,0-.22,2.65,7.9,7.9,0,0,0,.56,2.58,7.14,7.14,0,0,0,3.46,3.79,7.82,7.82,0,0,1-3-4,8.67,8.67,0,0,1-.19-4.89,6.66,6.66,0,0,1,1.09-2.18,9.42,9.42,0,0,1,1.78-1.73A15.86,15.86,0,0,1,247.81,119.79Z" style="fill:#263238"></path><path d="M262.46,114.11a13.07,13.07,0,0,1,3.85-1.42,7.76,7.76,0,0,1,3.95.22,7.87,7.87,0,0,1,3.27,2.24,14,14,0,0,1,2.22,3.45,10,10,0,0,0-1.85-3.76,7.08,7.08,0,0,0-7.7-2.63A10,10,0,0,0,262.46,114.11Z" style="fill:#263238"></path><path d="M273.79,126.25a14.25,14.25,0,0,1-4.47-1.53,8.3,8.3,0,0,1-1.85-1.39,10.43,10.43,0,0,1-1.48-1.86,6.06,6.06,0,0,0,1.11,2.19,6.43,6.43,0,0,0,1.91,1.61,7.91,7.91,0,0,0,2.33.87A7.21,7.21,0,0,0,273.79,126.25Z" style="fill:#263238"></path><path d="M255.16,143.91s-5-5.23-7.44-3.35,2,9.9,5.27,10.58a3.21,3.21,0,0,0,4-2.37Z" style="fill:#f7a9a0"></path><path d="M249,142.83a0,0,0,0,0,0,.08c2.33.55,3.8,2.4,4.94,4.38a1.78,1.78,0,0,0-2.7-.07.07.07,0,0,0,.07.11,2,2,0,0,1,2.26.35,9.43,9.43,0,0,1,1.3,1.58c.13.18.47,0,.36-.2l0,0C254.86,146.22,252.08,142.64,249,142.83Z" style="fill:#263238"></path><path d="M519.75,325.68c-1,2.66-49.35,62.78-52.64,63.91-1.25.43-10.42-6.1-21.27-14.31-2.34-1.77-4.75-3.62-7.19-5.5-15.83-12.24-32.34-25.58-32.34-25.58l32.24-40.31L470,330.58l6.91,5.85s28.81-14.73,32.56-15.58S520.74,323,519.75,325.68Z" style="fill:#f7a9a0"></path><path d="M519.75,325.68c-1,2.66-49.35,62.78-52.64,63.91-1.52.52-14.74-9.23-28.46-19.81L470,330.58l6.91,5.85s28.81-14.73,32.56-15.58S520.74,323,519.75,325.68Z" style="fill:#fff"></path><path d="M519.75,325.68c-1,2.66-49.35,62.78-52.64,63.91-1.25.43-10.42-6.1-21.27-14.31l31.07-38.85s28.81-14.73,32.56-15.58S520.74,323,519.75,325.68Z" style="fill:#BA68C8"></path><path d="M516.65,324.6c-8.35,9.88-41.12,50.51-48.62,60.91-.07.09,0,.13.06.05,8.49-9.61,40.93-50.5,48.73-60.82C517,324.52,516.83,324.4,516.65,324.6Z" style="fill:#263238"></path><path d="M504.19,323a10.37,10.37,0,0,0-2.38,8,10.08,10.08,0,0,0,3.56,6.58c.07.05.16-.06.1-.12a12,12,0,0,1-1.15-14.36C504.38,323,504.26,322.89,504.19,323Z" style="fill:#263238"></path><path d="M481.06,333.33c-3.3,4-5.64,9.81-4.36,15,.05.2.33.12.37-.05a71.3,71.3,0,0,1,4.54-14.59A.32.32,0,0,0,481.06,333.33Z" style="fill:#263238"></path><path d="M484.78,331.19c-3.3,4-5.64,9.81-4.36,15,.05.2.33.13.37,0a71.39,71.39,0,0,1,4.54-14.6A.32.32,0,0,0,484.78,331.19Z" style="fill:#263238"></path><path d="M488.5,329.05c-3.3,4-5.64,9.81-4.36,15,.05.2.33.13.37,0a71.39,71.39,0,0,1,4.54-14.6A.32.32,0,0,0,488.5,329.05Z" style="fill:#263238"></path><path d="M492.22,326.92c-3.31,4-5.64,9.81-4.36,15,.05.2.33.12.37-.05a71.11,71.11,0,0,1,4.54-14.59A.32.32,0,0,0,492.22,326.92Z" style="fill:#263238"></path><path d="M460.52,375.25c-3.63,4.53,3.41,10.18,7.05,5.63S464.15,370.7,460.52,375.25Z" style="fill:#fff"></path><path d="M473.8,320.31c-3.33.68-3.75,4.58-3,7.26a27.11,27.11,0,0,0,7.36,12,.14.14,0,0,0,.22,0,.63.63,0,0,0,.91-.47c.32-4.47,1.22-9.21.17-13.64C478.84,322.8,477,319.67,473.8,320.31Zm4.59,11.85c-.1,2.2-.32,4.38-.34,6.59-1.43-2.34-2.95-4.6-4.15-7.08a28.7,28.7,0,0,1-1.53-3.67c-.63-1.95-.82-8.62,3.89-5.49C478.86,324.24,478.52,329.53,478.39,332.16Z" style="fill:#263238"></path><path d="M471.6,350.75c3.36-3.08,5.28-7.5,7.52-11.38a.64.64,0,0,0-.5-.9.14.14,0,0,0-.16-.15,27.23,27.23,0,0,0-12.81,5.77c-2.11,1.8-4,5.26-1.58,7.69S469.63,352.55,471.6,350.75Zm-4.26.59c-5.65,0-1.76-5.47-.14-6.73a29.12,29.12,0,0,1,3.32-2.17c2.38-1.38,4.92-2.4,7.41-3.53-1.22,1.84-2.27,3.76-3.41,5.65C473.15,346.8,470.46,351.37,467.34,351.34Z" style="fill:#263238"></path><path d="M468.32,324.49l-33.55,45.27L321.58,291.21l-10.92-7.58s-3.09,2.08-7.74,4.65c-6.47,3.57-15.94,8.1-24.31,9.33-14.06,2.08-37.52,1.86-49.36-14-10-13.34-4.56-30.74-4.56-30.74l15.43-6.62s36.51-30.43,60.16-31.34c10.05-.4,24.68,7.21,38.23,15.17S468.32,324.49,468.32,324.49Z" style="fill:#455a64"></path><path d="M310.66,283.63s-3.09,2.08-7.74,4.65c-8.23-9.84-25.64-27.73-26.17-28.36Z" style="fill:#263238"></path><path d="M253.5,236.08c-2.19,1.52-4.3,3.13-6.45,4.69s-4.3,3-6.32,4.63-4,3.52-5.92,5.35c-.93.88-1.85,1.77-2.75,2.69a24.47,24.47,0,0,0-2.63,2.85c-.07.1.07.21.16.15a29,29,0,0,0,2.93-2.38l3-2.59c2-1.67,4-3.29,5.92-5s3.75-3.48,5.67-5.16c2.07-1.8,4.24-3.48,6.38-5.19C253.58,236.12,253.54,236.05,253.5,236.08Z" style="fill:#263238"></path><path d="M460.44,322.87c-2.18,2.35-4.19,4.88-6.22,7.36s-4.06,5-6.07,7.5c-4,5-8.08,10-12,15.11-2.17,2.79-4.31,5.6-6.33,8.51-.09.13.11.27.22.16,4.32-4.76,8.28-9.84,12.3-14.86s8-10.07,12-15.16c2.16-2.79,4.39-5.56,6.37-8.47C460.72,322.9,460.54,322.77,460.44,322.87Z" style="fill:#263238"></path><path d="M375.4,328.57c-5.63-4.44-19.33-13.87-25.17-18s-11.61-8.29-17.51-12.31c-1.7-1.16-3.4-2.28-5.11-3.42s-3.47-2.18-5.14-3.35c-.1-.07-.19.09-.09.16,1.53,1.1,3,2.33,4.48,3.47s2.87,2.19,4.32,3.26c2.82,2.1,5.68,4.15,8.53,6.21q8.69,6.27,17.5,12.35c3.34,2.29,14.52,9.83,17.93,12C375.35,329.05,375.59,328.72,375.4,328.57Z" style="fill:#263238"></path><path d="M410.73,281.65c-5.2-4.31-17.77-13.21-23.22-17.2s-11-8.1-16.55-12.11l-16.49-11.91c-5.33-3.86-10.63-7.77-16.25-11.18-3.08-1.86-6.24-3.59-9.49-5.15a63.2,63.2,0,0,0-9.8-4,.09.09,0,0,0-.07.17c2.78,1.55,5.69,2.86,8.5,4.35s5.51,3,8.19,4.66c5.59,3.39,10.86,7.24,16.16,11,11,7.91,22,15.86,33.07,23.66,6.2,4.37,19.26,14,25.7,18C410.68,282.12,410.92,281.81,410.73,281.65Z" style="fill:#263238"></path></g><g id="freepik--character-3--inject-36"><path d="M704.48,420.38c-2.83,1.09-84.89,2.58-88.1.74-.36-.2-.26-3.83-1.47-13.2-.06-.44-1.93-2.18-4.85-4.63-11-9.2-36.76-28.59-36.76-28.59l41-35.58,39.69,39,10.32,10.14s33.53,18.1,36.85,20.49S707.3,419.29,704.48,420.38Z" style="fill:#d3766a"></path><path d="M704.47,420.38c-2.81,1.09-84.89,2.57-88.1.75-.35-.21-.25-3.84-1.45-13.2,10.07,2.68,71.71,4.32,76.42.27,3.14-2.7-9-10-14-12.8,9.79,5.35,21.81,12,23.73,13.37C704.41,411.16,707.3,419.29,704.47,420.38Z" style="fill:#BA68C8"></path><path d="M654.5,376l-50.62,26.23s-52.74-47.74-57.57-48.09S470.53,401.88,434.81,402c-37,.15-38.87-38.61-38.87-38.61l54-12.39c38.9-19.17,79.42-53.61,105.93-50.4C584.62,304.12,654.5,376,654.5,376Z" style="fill:#37474f"></path><path d="M642.14,369.27c-8.55,4.22-6.15,2.9-14.65,7.21-4.16,2.11-25.1,12.67-28.65,15.29a.09.09,0,0,0,.09.16c4.18-1.4,24.88-12.41,29-14.6,8.42-4.47,6-3.27,14.33-7.83A.13.13,0,1,0,642.14,369.27Z" style="fill:#263238"></path><path d="M594.91,390.09C585,381.36,552.59,353,551.27,351.9a18.38,18.38,0,0,0-3.37-2.54,3.57,3.57,0,0,0-3.13.26c-1.49.7-3,1.46-4.45,2.19l-8.77,4.28c-11.34,5.54-22.62,11.22-34,16.57-11,5.15-18.84,10-30.32,13.95A171.81,171.81,0,0,1,432,395c-1.48.18-3,.34-4.44.47-.11,0-.11.18,0,.17a141.63,141.63,0,0,0,34.66-6.44c11.37-3.5,19.08-8,29.88-13,11.2-5.15,22.23-10.66,33.26-16.14,5.83-2.9,11.64-5.82,17.48-8.68,1.33-.65,3.21-2.06,4.73-1.36a8.35,8.35,0,0,1,1.74,1.29l1.94,1.61c2.51,2.09,42.26,36.32,43.56,37.31C594.88,390.3,595,390.17,594.91,390.09Z" style="fill:#263238"></path><path d="M395.84,363.42s-6,35,11.45,48.75S553,424.26,572.45,418s20.07-37.68-1.2-45C551,366.1,465,362.74,462.84,361.89c-.53-.21,7.64-5.1,7.6-5.4l-19.58-6Z" style="fill:#37474f"></path><path d="M422.4,362.54c0-.15-.25-.1-.25,0a17.31,17.31,0,0,1-4,11.12c-3,3.44-7.37,5.36-11.35,7.38-.38.19-.09.79.3.67a35.27,35.27,0,0,0,7-3,17,17,0,0,0,5.29-4.39A15.11,15.11,0,0,0,422.4,362.54Z" style="fill:#263238"></path><path d="M461.44,358.2c-.89-1.13-1.86-2.21-2.79-3.31-2.19-2.61-4.39-5.23-6.69-7.75-.22-.24-.64.1-.44.36,1.55,2,3.18,4,4.79,5.95.83,1,1.66,2,2.49,3a18.19,18.19,0,0,1,2.32,2.94c.6,1.12-.18,2.08-1.35,2.21a4,4,0,0,1-2.79-1,36.88,36.88,0,0,1-4.75-5.08c-.92-1-1.85-2.07-2.78-3.1s-2.06-2.12-3.06-3.21c-.06-.07-.18,0-.13.1.87,1.19,1.67,2.44,2.54,3.63s1.75,2.37,2.65,3.55,1.73,2.19,2.64,3.25a10.72,10.72,0,0,0,2.67,2.4c1.66,1,4.55,1.19,5.44-1A3,3,0,0,0,461.44,358.2Z" style="fill:#263238"></path><path d="M569.79,418.09c-6.7.13-13.39.52-20.09.66s-13.29.18-19.93.12q-20-.19-40-1.56c-13.46-.93-28-2.27-41.34-4.12-6.39-.89-12.87-1.63-19.19-3a30.33,30.33,0,0,1-15.15-7.74c-8.66-8.4-12-20.74-13.4-32.54-.19-1.58-.34-3.16-.47-4.75,0-.11-.17-.11-.16,0,.78,12.1,2.66,24.7,10.26,34.43a30.35,30.35,0,0,0,12.39,9.62c6,2.4,12.64,3,18.95,3.82,13.43,1.82,28,3.22,41.49,4.27s27.2,1.71,40.82,1.91,27.25,0,40.86-.66c1.66-.08,3.32-.18,5-.33C569.89,418.24,569.89,418.09,569.79,418.09Z" style="fill:#263238"></path><path d="M527.56,366.64c-4.21-.61-8.42-1.22-12.66-1.66s-8.57-.83-12.86-1.19c-8.48-.72-17-1.37-25.49-1.77-4.83-.22-9.66-.25-14.5-.18-.15,0-.14.22,0,.23,8.5.77,17,1.31,25.53,1.87s17,1.32,25.47,2.12c4.8.46,9.62.82,14.43,1.21C527.85,367.3,527.92,366.7,527.56,366.64Z" style="fill:#263238"></path><path d="M471.44,356.06a64.93,64.93,0,0,0-9.76,5.23,77.7,77.7,0,0,0-9,6.32c-.08.06,0,.16.1.13,3.31-1.53,6.5-3.45,9.65-5.29a88.51,88.51,0,0,0,9.24-5.94C471.85,356.36,471.72,355.94,471.44,356.06Z" style="fill:#263238"></path><path d="M399.22,303.38c.65.13,3.69.78,8.12,1.74a25.43,25.43,0,0,0,5.44-14.48c.09-1.2,1.59,6.09-1.32,15.37,8.57,1.84,20.22,4.34,30.42,6.42,1-3.95,2-7.58,2-7.58a44.71,44.71,0,0,0,.19,8l4.07.82c.88-6.26,4-16.86,4-16.86a55.47,55.47,0,0,0,1.82,18c6.49,1.26,10.78,2,10.57,1.61-7.69-13.13.74-18.25-.17-28.7-1.1-12.53-11-16.36-9-25.23,1.61-7.22,5-20.23-3.62-24.79a18,18,0,0,0-18.49-7.32c-15.55,2.8-14.07,26.29-15.92,30.66-2.65,6.24-6.18,7.95-9.91,14.93s-1.31,12.7-1.89,17.87S397.6,303.05,399.22,303.38Z" style="fill:#263238"></path><path d="M465.14,314.93a25.85,25.85,0,0,1-1.94-7c-.33-2.36.43-4.56,1.32-6.82a72.21,72.21,0,0,0,2.56-6.95,19.27,19.27,0,0,0,.7-7.61,16.91,16.91,0,0,0-2.68-7.19,45.44,45.44,0,0,0-4.68-5.8,27.12,27.12,0,0,1-4.25-5.76,13.18,13.18,0,0,1-1.37-7,12.37,12.37,0,0,0,.55,7.35,25,25,0,0,0,4,6.32,57.23,57.23,0,0,1,4.27,5.81,16.09,16.09,0,0,1,2.28,6.48,18.79,18.79,0,0,1-.61,6.89c-.57,2.3-1.45,4.56-2.22,6.91a25.35,25.35,0,0,0-.94,3.65,11,11,0,0,0,.12,3.85A21.33,21.33,0,0,0,465.14,314.93Z" style="fill:#263238"></path><path d="M423.5,237.22a37.09,37.09,0,0,0-3.62,8.29c-.93,2.88-1.71,5.79-2.47,8.7l-1.15,4.34a22,22,0,0,1-1.46,4.07,24,24,0,0,1-5.39,6.76,34.12,34.12,0,0,0-3.1,3.43,20.42,20.42,0,0,0-2.44,4,32.28,32.28,0,0,0-1.5,4.41,19.48,19.48,0,0,0-.62,4.63c0,1.57.13,3.08.22,4.55a22.17,22.17,0,0,1-.13,4.39,9.22,9.22,0,0,1-5,6.82,9.35,9.35,0,0,0,5.91-6.65,22.83,22.83,0,0,0,.48-4.58c0-1.54-.08-3,0-4.47a23.61,23.61,0,0,1,2.28-8.32,20.72,20.72,0,0,1,2.27-3.64,34.22,34.22,0,0,1,3-3.21,44.08,44.08,0,0,0,3.15-3.36,18.63,18.63,0,0,0,2.54-4,23.93,23.93,0,0,0,1.44-4.44c.37-1.47.68-3,1-4.42.63-2.94,1.2-5.88,1.9-8.79A44.24,44.24,0,0,1,423.5,237.22Z" style="fill:#263238"></path><path d="M437.33,297.09c11.86,13.8,35.08,30.16,52.42,34.2,8.36,1.94,20.41-5.38,22.47-7.25,12.87-11.69,27.6-35,32.69-50.54,1.51-4.63-25.67-15.68-28.64-11.4-6.94,10-26,36.25-27.41,36.31-5.29.22-24.84-8.47-43.58-15.59C425.55,275.31,430.54,289.18,437.33,297.09Z" style="fill:#d3766a"></path><path d="M507.91,223.86l38.56-7.28c1.14-.34,2,.27,1.95,1.37l-1.18,19.6a3.2,3.2,0,0,1-2.19,2.6l-38.56,7.28c-1.15.34-2-.28-1.95-1.37l1.18-19.6A3.19,3.19,0,0,1,507.91,223.86Z" style="fill:#37474f"></path><path d="M507.75,226.18l38.56-7.28c1.14-.34,2,.28,2,1.37l-1.19,19.61a3.16,3.16,0,0,1-2.18,2.59l-38.56,7.28c-1.15.34-2-.27-1.95-1.37l1.18-19.6A3.2,3.2,0,0,1,507.75,226.18Z" style="fill:#455a64"></path><path d="M509.16,231.66a1.67,1.67,0,1,0-1.61-1.73A1.67,1.67,0,0,0,509.16,231.66Z" style="fill:#263238"></path><path d="M549.3,258.48c.76-10-.58-12.7,4.55-20.81,3.36-5.33,1.41-9.76-4.27-6.49-9.28,5.36-13,18.07-13,22.85Z" style="fill:#d3766a"></path><path d="M538.58,285S547,273.55,548.89,263c1.29-7.33,2.32-23.58-14.56-38-4-3.43-12.14-5.46-7.63,2.5,3.21,5.66,6.95,8.28,8.21,11.91,0,0-10.65-1.37-13.92,2.78a96.77,96.77,0,0,0-7.78,11.44,19.7,19.7,0,0,0,2,1.64s-2.69,4.16-1.51,11.6Z" style="fill:#d3766a"></path><path d="M549,255.77c-2-3.34-6.4-10.34-12-14.82-6.2-5-19.49-12.88-23.11-8.26-2.66,3.38,2.15,6.85,2.15,6.85s-6.18-2.11-7.92,1.47c-1.57,3.27,2.31,5.72,2.31,5.72s-4-.63-4.89,2.81c-1.1,4.13,7.4,4.78,9.91,9.94C516,260.63,549,255.77,549,255.77Z" style="fill:#d3766a"></path><path d="M532.85,248.38c-2.41-2.82-9.53-7.84-16.65-8.9-.16,0-.27.08-.12.13a78.38,78.38,0,0,1,16.72,8.83S532.88,248.42,532.85,248.38Z" style="fill:#263238"></path><path d="M527.65,254.5c-2.33-2.23-9.91-7.07-17.16-7.9-.16,0-.25.1-.11.15a83.32,83.32,0,0,1,17.22,7.81S527.68,254.53,527.65,254.5Z" style="fill:#263238"></path><path d="M511.72,266.7,540,299.77s-25.82,29-37.16,32.7c-12,3.88-40.51-7.09-64.18-33-18-19.71-4.12-22.51,9.85-16.59,9.37,4,39.21,14.35,40.16,14S511.72,266.7,511.72,266.7Z" style="fill:#BA68C8"></path><path d="M501.25,324.2a13.73,13.73,0,0,0-1.16,3.78,14.19,14.19,0,0,0,2.09-3.35,13.94,13.94,0,0,0,1.16-3.76A14.08,14.08,0,0,0,501.25,324.2ZM440.2,294a13.73,13.73,0,0,0-1.16,3.78,14.19,14.19,0,0,0,2.09-3.35,13.94,13.94,0,0,0,1.16-3.76A14.08,14.08,0,0,0,440.2,294Zm62.95-10.67a13.73,13.73,0,0,0-1.18,3.76,13.49,13.49,0,0,0,2.1-3.34,14,14,0,0,0,1.17-3.76A13.63,13.63,0,0,0,503.15,283.29Zm22.28,6.76a13.85,13.85,0,0,0-3.76-1.17A13.54,13.54,0,0,0,525,291a13.94,13.94,0,0,0,3.76,1.16A13.8,13.8,0,0,0,525.43,290.05Zm-56.22,3.21a13.85,13.85,0,0,0-3.76-1.17,13.54,13.54,0,0,0,3.35,2.1,13.94,13.94,0,0,0,3.76,1.16A13.8,13.8,0,0,0,469.21,293.26Zm-11.9,16.19a14.18,14.18,0,0,0-1.84-3.48,14,14,0,0,0,.88,3.84,14.26,14.26,0,0,0,1.84,3.49A14,14,0,0,0,457.31,309.45Zm63,2.21a13.47,13.47,0,0,0-1.84-3.47,15.23,15.23,0,0,0,2.72,7.32A13.75,13.75,0,0,0,520.32,311.66Zm-33.63-4a13.47,13.47,0,0,0-1.84-3.47,15.23,15.23,0,0,0,2.72,7.32A13.75,13.75,0,0,0,486.69,307.64Zm19-5.12a14.22,14.22,0,0,0-3.49,1.83,13.75,13.75,0,0,0,3.85-.88,14,14,0,0,0,3.48-1.83A13.69,13.69,0,0,0,505.67,302.52Zm-29.94,22.86a18.63,18.63,0,0,0-2.19,1l.93.46a15.17,15.17,0,0,0,1.62-.5,14,14,0,0,0,3.48-1.83A13.69,13.69,0,0,0,475.73,325.38Z" style="fill:#fff"></path><path d="M508.14,276.65c3.92,4.42,7.71,9,11.46,13.51,1.84,2.23,8.8,11.4,10.81,14,.08.1-.2.32-.29.23-2-2.27-9.51-11.35-11.31-13.62-3.67-4.62-7.3-9.26-10.8-14C508,276.67,508.07,276.58,508.14,276.65Z" style="fill:#263238"></path><path d="M511.57,327.28c-3.3,2.52-6.33,4.42-8.72,5.19-12,3.88-40.51-7.09-64.19-33-6.6-7.22-8.92-12.17-8.52-15.25Z" style="opacity:0.1"></path><path d="M393,367.12c2.39.9,72.49-15.6,72.49-15.6l-6.95-24.4s4.42-7.51,2.92-15c-2-10-19.52-27.26-20.92-28.29-5.59-4.13-10.68-4.94-15.6-2.63C404.46,290.78,393,367.12,393,367.12Z" style="fill:#BA68C8"></path><path d="M440.2,294a13.73,13.73,0,0,0-1.16,3.78,14.19,14.19,0,0,0,2.09-3.35,13.94,13.94,0,0,0,1.16-3.76A14.08,14.08,0,0,0,440.2,294Zm-12.88,50.56a14.12,14.12,0,0,0-1.16,3.77,15.29,15.29,0,0,0,3.25-7.11A13.94,13.94,0,0,0,427.32,344.52Zm-15.63-40.46a14.12,14.12,0,0,0-1.16,3.77,15.29,15.29,0,0,0,3.25-7.11A13.94,13.94,0,0,0,411.69,304.06ZM457.47,341a13.73,13.73,0,0,0-1.18,3.76,13.49,13.49,0,0,0,2.1-3.34,14,14,0,0,0,1.17-3.76A13.63,13.63,0,0,0,457.47,341Zm-29.68-28.14a13.85,13.85,0,0,0-3.76-1.17,13.54,13.54,0,0,0,3.35,2.1,13.94,13.94,0,0,0,3.76,1.16A13.8,13.8,0,0,0,427.79,312.83Zm29.52-3.38a14.18,14.18,0,0,0-1.84-3.48,14,14,0,0,0,.88,3.84,14.26,14.26,0,0,0,1.84,3.49A14,14,0,0,0,457.31,309.45Zm-45.66,19.87a13.47,13.47,0,0,0-1.84-3.47,15.23,15.23,0,0,0,2.72,7.32A13.75,13.75,0,0,0,411.65,329.32Zm3.43,29.95a13.61,13.61,0,0,0,.78,3.57l1-.23A13.46,13.46,0,0,0,415.08,359.27Zm26.78-31.19a13.59,13.59,0,0,0-3.49,1.84,13.69,13.69,0,0,0,3.84-.88,13.93,13.93,0,0,0,3.49-1.84A13.61,13.61,0,0,0,441.86,328.08Zm-18-45.06a13.59,13.59,0,0,0-3.49,1.84,13.69,13.69,0,0,0,3.84-.88,13.93,13.93,0,0,0,3.49-1.84A13.61,13.61,0,0,0,423.85,283Zm-24.23,67.22a13.59,13.59,0,0,0-3.49,1.84,13.69,13.69,0,0,0,3.84-.88,13.93,13.93,0,0,0,3.49-1.84A13.61,13.61,0,0,0,399.62,350.24Z" style="fill:#fff"></path><path d="M449.62,292.92c1.67,2.16,3.48,4.23,5.22,6.35-.78-1.56-1.56-3.12-2.4-4.64,0,0,0-.06.05,0a33.8,33.8,0,0,1,3.22,5.75,47,47,0,0,1,3.56,5.06,21.64,21.64,0,0,1,2.81,6.84,18.5,18.5,0,0,1-.17,7.41,47.08,47.08,0,0,1-2.75,8.15c-.14.35-.64.1-.52-.25,1.53-4.61,3.25-9.49,2.46-14.42S457.49,304,454.75,300a68.83,68.83,0,0,0-5.28-7C449.39,292.94,449.54,292.83,449.62,292.92Z" style="fill:#263238"></path><path d="M432.46,326.43a66.63,66.63,0,0,1,10-.17c1.65.12,3.29.31,4.93.54.82.11,1.64.2,2.46.28a10.68,10.68,0,0,0,2.59,0c.07,0,.09.1,0,.12a17.94,17.94,0,0,1-2.42.39,17,17,0,0,1-2.37,0c-1.68-.1-3.36-.28-5-.4-3.39-.25-6.77-.49-10.17-.49C432.31,326.7,432.3,326.44,432.46,326.43Z" style="fill:#263238"></path><path d="M424.9,330.79a71.49,71.49,0,0,1,8-1.86c1.36-.23,2.72-.38,4.09-.5l2-.13c.72,0,1.45,0,2.17,0,.08,0,.1.11,0,.12-.68.07-1.35.25-2,.35l-2,.31c-1.35.22-2.7.44-4.06.64-2.72.4-5.43.83-8.13,1.32C424.79,331,424.77,330.83,424.9,330.79Z" style="fill:#263238"></path><path d="M418.24,285.6c-14,10.76-50.86,54.27-43.16,64.59s60.53,6.89,75.95,2.44c4.58-1.32-7.18-30.49-12.08-31.93-4.07-1.2-26.94,5-27.35,3.68-.47-1.5,4.6-11.14,12.77-28.77C433.79,275.29,424.41,280.85,418.24,285.6Z" style="fill:#d3766a"></path><path d="M461.48,315.64c10.57.27,13.24,2,22.28-2.54,5.93-3,10.36-.44,6.33,5.15-6.59,9.15-20.29,11.66-25.3,11.16Z" style="fill:#d3766a"></path><path d="M432.4,321.05s12.67-4.53,24-5.36c7.81-.57,24.93.09,38.24,19.29,3.16,4.55,4.42,13.28-3.43,7.72-5.58-4-7.93-8.15-11.59-9.86,0,0,.29,11.29-4.4,14.28a101.5,101.5,0,0,1-12.8,6.92,20.93,20.93,0,0,1-1.51-2.28s-4.64,2.38-12.3.35Z" style="fill:#d3766a"></path><path d="M463.9,316.34c3.28,2.47,10.14,7.81,14.24,14.13,4.54,7,11.41,21.77,6.19,25.08-3.82,2.42-6.94-3-6.94-3s1.55,6.69-2.38,8.13c-3.59,1.3-5.75-3-5.75-3s.24,4.22-3.45,4.81c-4.45.72-4.23-8.25-9.36-11.42C455.3,350.35,463.9,316.34,463.9,316.34Z" style="fill:#d3766a"></path><path d="M469.91,334c2.71,2.82,7.2,10.81,7.56,18.38,0,.17-.12.26-.16.11a82,82,0,0,0-7.46-18.45A0,0,0,0,1,469.91,334Z" style="fill:#263238"></path><path d="M463,338.83c2.08,2.68,6.35,11.12,6.45,18.8,0,.17-.13.26-.17.1a88,88,0,0,0-6.35-18.86S462.93,338.8,463,338.83Z" style="fill:#263238"></path><path d="M479.59,332.77c3.2,1.55,5.12,3.56,7.63,6a48.9,48.9,0,0,0,3.88,3.46c1.25,1,3.09,2.42,4.74,1.5a2.81,2.81,0,0,0,1.08-2.64A13.79,13.79,0,0,0,495.7,337s.06-.09.09,0a19.56,19.56,0,0,1,1.45,3.74,4.46,4.46,0,0,1-.13,2.68c-.8,1.77-3,1.66-4.49.89a14.9,14.9,0,0,1-2.44-1.72c-.74-.61-1.45-1.24-2.14-1.9-1.42-1.35-2.76-2.77-4.17-4.13a42.83,42.83,0,0,0-4.35-3.6A.07.07,0,0,1,479.59,332.77Z" style="fill:#263238"></path><path d="M484.68,345.78a106.66,106.66,0,0,0-5.17-12.94,0,0,0,0,1,.08,0c2.21,2.92,5.33,10.22,6,12.5s1.3,5.11.91,7.44c-.58,3.52-3,3.8-3.91,3.83a4.69,4.69,0,0,1-2.92-1,9.26,9.26,0,0,1-2.29-3c0-.05,0-.11.08-.05,1,1.59,2.79,3.29,4.74,3.35a3.24,3.24,0,0,0,2.37-.81,4.19,4.19,0,0,0,1-2.74A19.37,19.37,0,0,0,484.68,345.78Z" style="fill:#263238"></path><path d="M432.4,321.05,443,358s-66,3.76-69.7-8.23,28.25-51.29,41.48-62.08c15.34-12.5,16.16-7.25,11.17,5.26-5.23,13.09-14.23,31.79-14.23,31.79Z" style="fill:#BA68C8"></path><path d="M382.94,338.11a14.12,14.12,0,0,0-1.16,3.77,15.29,15.29,0,0,0,3.25-7.11A13.94,13.94,0,0,0,382.94,338.11Zm44.38,6.41a14.12,14.12,0,0,0-1.16,3.77,15.29,15.29,0,0,0,3.25-7.11A13.94,13.94,0,0,0,427.32,344.52Zm-15.63-40.46a14.12,14.12,0,0,0-1.16,3.77,15.29,15.29,0,0,0,3.25-7.11A13.94,13.94,0,0,0,411.69,304.06Zm0,25.26a13.47,13.47,0,0,0-1.84-3.47,15.23,15.23,0,0,0,2.72,7.32A13.75,13.75,0,0,0,411.65,329.32Zm-17-10.74a13.59,13.59,0,0,0-3.49,1.84,13.69,13.69,0,0,0,3.84-.88,13.93,13.93,0,0,0,3.49-1.84A13.61,13.61,0,0,0,394.65,318.58ZM423.85,283a13.59,13.59,0,0,0-3.49,1.84,13.69,13.69,0,0,0,3.84-.88,13.93,13.93,0,0,0,3.49-1.84A13.61,13.61,0,0,0,423.85,283Zm-24.23,67.22a13.59,13.59,0,0,0-3.49,1.84,13.69,13.69,0,0,0,3.84-.88,13.93,13.93,0,0,0,3.49-1.84A13.61,13.61,0,0,0,399.62,350.24Z" style="fill:#fff"></path><path d="M390.87,330.65a73.89,73.89,0,0,1,10.19-3.92,72.46,72.46,0,0,1,10.53-2.33c2-.32,4.07-.54,6.11-.77.06,0,.07.09,0,.1A93.59,93.59,0,0,0,407.09,326c-3.48.91-6.94,1.87-10.38,2.91-1.95.58-3.87,1.26-5.79,1.91A.07.07,0,1,1,390.87,330.65Z" style="fill:#263238"></path><path d="M432.25,320.92c-.34,0-18.7,2.9-19.32,3.07.12-.25,4.77-9,5.47-10.27.06-.13.13-.26.2-.39.41-.55.83-1.1,1.23-1.67l1.51-2.19s0-.05,0,0l-1.6,2.12c-.25.33-.48.67-.72,1,.47-.9.92-1.81,1.37-2.73.73-1.46,1.4-2.94,2.07-4.42,0-.05-.05-.08-.07,0-1.37,2.55-2.82,5.06-4.2,7.6s-6.61,11.89-6.58,11.88,20.3-3.59,20.7-3.68C432.43,321.13,432.41,320.9,432.25,320.92Z" style="fill:#263238"></path><path d="M429.72,343.45c-1.16-4.12-2.28-8.25-3.6-12.32-.74-2.32-1.47-4.64-2.24-6.95,0-.09-.18-.05-.16,0,1,4.18,2,8.37,3.2,12.51s2.34,8.23,3.58,12.33c.7,2.33,1.47,4.63,2.32,6.92a0,0,0,0,0,.08,0C432,351.74,430.89,347.6,429.72,343.45Z" style="fill:#263238"></path><path d="M443.75,358.66c-.47-1.16-1-2.82-1.53-4-.14-.31-.36-.28-.26,0,.33,1,.55,2.19.87,3.25-.92,0-1.85,0-2.77.08l-3.21.13q-3.14.13-6.27.19-6.36.12-12.72,0c-8.5-.21-13.94-.32-22.42-.87-1.29-.08-.61.17.25.26,4.27.45,3.54.41,7.82.72,8.48.62,17,.86,25.5.77,2.39,0,4.77-.08,7.15-.16,1.2,0,2.41-.08,3.61-.15S443.82,358.85,443.75,358.66Z" style="fill:#263238"></path><path d="M427,284.85c.5,1.18,7.76,8.17,13.34,6.94,1.82-.41.06-10.44.06-10.44l0-.77L441,269.8l-15.47-6.46S426.78,284.34,427,284.85Z" style="fill:#d3766a"></path><path d="M441,269.81l-.29,5.71c-5.74,3.24-12.06,1.82-14.32,1.14-.41-6.08-.86-13.31-.86-13.31Z" style="fill:#263238"></path><path d="M414.43,253.58c-2.26,18.81,8.75,22.28,12.8,22.77,3.69.43,16.28,1.46,20.47-17s-3.84-25.47-12.21-26.91S416.68,234.77,414.43,253.58Z" style="fill:#d3766a"></path><path d="M417.16,252.21a10.84,10.84,0,0,0,1.29-.21,2.08,2.08,0,0,0,1.28-.46.66.66,0,0,0,0-.82,1.66,1.66,0,0,0-1.62-.47,2.41,2.41,0,0,0-1.59.79A.72.72,0,0,0,417.16,252.21Z" style="fill:#263238"></path><path d="M430,253a11.28,11.28,0,0,1-1.27-.33,2.07,2.07,0,0,1-1.22-.59.66.66,0,0,1,0-.82,1.68,1.68,0,0,1,1.66-.31,2.47,2.47,0,0,1,1.5.95A.71.71,0,0,1,430,253Z" style="fill:#263238"></path><path d="M426.79,255.57s.09.07.09.12c-.14,1.28-.08,2.77,1.06,3.29,0,0,0,.08,0,.07C426.52,258.74,426.45,256.76,426.79,255.57Z" style="fill:#263238"></path><path d="M428,254.31c2.08,0,1.94,4.15,0,4.16S426.29,254.31,428,254.31Z" style="fill:#263238"></path><path d="M428.84,254.56c.36.24.7.67,1.14.73s.9-.36,1.25-.76c0-.05.07,0,.07.05,0,.79-.35,1.6-1.21,1.69s-1.32-.64-1.49-1.45C428.56,254.67,428.7,254.46,428.84,254.56Z" style="fill:#263238"></path><path d="M419.72,255c0-.05-.1,0-.1.11,0,1.29-.2,2.77-1.38,3.17a0,0,0,0,0,0,.07C419.68,258.2,419.93,256.24,419.72,255Z" style="fill:#263238"></path><path d="M418.6,253.64c-2.07-.21-2.34,3.94-.42,4.14S420.34,253.82,418.6,253.64Z" style="fill:#263238"></path><path d="M417.72,253.86c-.34.2-.69.57-1.09.57s-.76-.47-1-.92c0,0-.07,0-.07,0-.07.8.13,1.64.89,1.84s1.24-.46,1.48-1.24C418,254,417.86,253.78,417.72,253.86Z" style="fill:#263238"></path><path d="M426.69,266.9c-.3.31-.61.73-1.07.77a3.35,3.35,0,0,1-1.39-.31c-.05,0-.09,0-.06.07a1.75,1.75,0,0,0,1.65.68,1.39,1.39,0,0,0,1-1.15C426.84,266.88,426.74,266.86,426.69,266.9Z" style="fill:#263238"></path><path d="M421.36,261.86s-.35,1.91-.4,2.82c0,.08.22.13.53.17h0a4.35,4.35,0,0,0,4.27-1.42.09.09,0,0,0-.13-.13,6.56,6.56,0,0,1-4,.95c-.05-.26.72-3.26.58-3.28a8,8,0,0,0-2.09.38c.63-4,1.88-7.88,2.44-11.88a.12.12,0,0,0-.23-.07,65.56,65.56,0,0,0-3.17,12.68C419.09,262.59,421,262,421.36,261.86Z" style="fill:#263238"></path><path d="M422,264.55a4.86,4.86,0,0,0,1.84,1.64,2.3,2.3,0,0,0,1.33.17c1-.19,1.06-1.07.93-1.83a5.37,5.37,0,0,0-.35-1.19A6.31,6.31,0,0,1,422,264.55Z" style="fill:#263238"></path><path d="M423.86,266.19a2.3,2.3,0,0,0,1.33.17c1-.19,1.06-1.07.93-1.83A2.26,2.26,0,0,0,423.86,266.19Z" style="fill:#ff9bbc"></path><path d="M447.66,260.37a7.83,7.83,0,0,1-4.56-6.25,20.43,20.43,0,0,1-8.52-6.46c.14.38,1.14,3.18,1.69,4.59-12.11-1.9-16.1-11-16.1-11a20.72,20.72,0,0,0-5,7.79s-.3-7.39,3.36-12.45a12,12,0,0,1,10.86-5.23A17,17,0,0,1,446.12,236C454.19,244.29,447.66,260.37,447.66,260.37Z" style="fill:#263238"></path><path d="M427.06,250.52a22.09,22.09,0,0,0,6.24,2.1s0,0,0,0a19,19,0,0,1-9-5.09,18.3,18.3,0,0,1-2.71-3.56,12.55,12.55,0,0,1-1.73-4.55.09.09,0,1,0-.18,0,14.19,14.19,0,0,0,1.09,4.72,13.19,13.19,0,0,0,2.79,3.91,14.76,14.76,0,0,0,3.49,2.48" style="fill:#263238"></path><path d="M444.54,260.42s4.32-5.77,7-4.21-.76,10-3.95,11.09a3.2,3.2,0,0,1-4.23-1.86Z" style="fill:#d3766a"></path><path d="M450.47,258.61a0,0,0,0,1,0,.08c-2.24.83-3.47,2.83-4.35,4.93a1.77,1.77,0,0,1,2.66-.4c.06,0,0,.13-.06.12a2,2,0,0,0-2.19.62,9.24,9.24,0,0,0-1.1,1.71c-.11.2-.46.08-.38-.14,0,0,0,0,0,0C445.12,262.66,447.43,258.79,450.47,258.61Z" style="fill:#263238"></path></g><g id="freepik--character-1--inject-36"><path d="M156.1,229.49c-1.56-.14-8-2.36-13.75,2.69-5.43,4.79-10.69,21.8-12.41,25.38s-6.8,3.06-8.93,7.19c-1.83,3.55.62,5.54.29,8.37-.25,2.19-3.11,4.94-1.85,8.54,1.15,3.28,4.41,3.35,6.11,4.67s1.91,6,5.15,7.9,7-.56,8.89-.14,2.81,6.61,9,7.44,9-3.92,11.77-4.39,8.63,2.66,12.18.16,5-6.56,6.59-7.82,4.27-.42,6.66-3.62-.43-6.19-.22-9.38c.14-2.22,2.49-3.77,1.86-7.35-.85-4.92-6.59-5.17-7.68-10.26-.86-4-.82-20.56-9.52-26.54C164.21,228.2,156.1,229.49,156.1,229.49Z" style="fill:#263238"></path><path d="M130.32,256.69a5.57,5.57,0,0,1-2.07,1.68l-2.34,1.27a16.43,16.43,0,0,0-4.3,2.93A5.34,5.34,0,0,0,120,267a8.09,8.09,0,0,0,.81,2.38,9.6,9.6,0,0,1,1,2.63,4.55,4.55,0,0,1-.87,2.79c-.47.78-1,1.52-1.37,2.27a6.37,6.37,0,0,0-.88,4.79,3.62,3.62,0,0,0,1.3,2,6.5,6.5,0,0,0,2.31,1.05c.83.25,1.71.41,2.58.62a4.47,4.47,0,0,1,2.4,1.13,4.74,4.74,0,0,0-2.45-.87c-.88-.13-1.76-.21-2.65-.39a7.17,7.17,0,0,1-2.57-1,4.38,4.38,0,0,1-1.67-2.29,6.86,6.86,0,0,1,.82-5.44c.42-.81.91-1.57,1.34-2.32a3.72,3.72,0,0,0,.7-2.19c-.22-1.5-1.51-3.08-1.71-5a6,6,0,0,1,2-5.15,17,17,0,0,1,4.63-2.81l2.44-1.07A6.1,6.1,0,0,0,130.32,256.69Z" style="fill:#263238"></path><path d="M177.11,243.18c1.07,3,1.44,6.22,2.13,9.31.34,1.54.64,3.1,1.09,4.59a10.67,10.67,0,0,0,.84,2.11,1.71,1.71,0,0,0,.28.42,2,2,0,0,0,.36.36,10.6,10.6,0,0,0,.92.7,44.6,44.6,0,0,1,3.83,2.92,8.16,8.16,0,0,1,2.67,4.17,5,5,0,0,1,0,2.53,6.38,6.38,0,0,1-1.22,2.16,10.32,10.32,0,0,0-2.4,4,9.63,9.63,0,0,1,2-4.32,6.15,6.15,0,0,0,1-2,4.32,4.32,0,0,0-.09-2.17,7.92,7.92,0,0,0-2.53-3.67,46.75,46.75,0,0,0-3.81-2.79c-.32-.24-.65-.48-1-.76a3.46,3.46,0,0,1-.84-1.06,11.48,11.48,0,0,1-.89-2.33,40.32,40.32,0,0,1-1-4.72l-.64-4.73A43.88,43.88,0,0,0,177.11,243.18Z" style="fill:#263238"></path><path d="M180.83,288.75a8.24,8.24,0,0,0-1.68,2.9c-.48,1-1,2.08-1.48,3.11a16.46,16.46,0,0,1-1.87,2.95A7.41,7.41,0,0,1,173,300c-2.42.9-4.89.19-7-.69-1.06-.44-2.09-.94-3.13-1.36a7.24,7.24,0,0,0-3.27-.7,6.57,6.57,0,0,1,3.43.23c1.11.33,2.17.75,3.24,1.1,2.1.7,4.39,1.24,6.33.48a6.72,6.72,0,0,0,2.47-1.94,21.45,21.45,0,0,0,1.93-2.72c.59-.95,1.14-1.95,1.7-2.94.3-.49.6-1,.92-1.46A3.29,3.29,0,0,1,180.83,288.75Z" style="fill:#263238"></path><path d="M161.93,289.32c16.89,12.62,36,27.32,49.8,28.41,7.39.58,42.25-18.53,51.25-30.92,3-4.07-16.51-24.85-23.13-24.72-4.5.08-28.2,27.71-31.6,26.72-6.27-1.84-22.86-7.39-41.67-10.64C153.92,276,152.18,282,161.93,289.32Z" style="fill:#ad6359"></path><path d="M236.64,263.72c8.15-8.32,17.8-19.19,30.49-22.62a6.49,6.49,0,0,1,4.26.18c5.66-1.64,8.14.55,8.14.55,5.74.08,8,2.66,8,2.66s6.67-1.85,8.46,2c2,4.3-7.74,6.06-12.52,10.31-10.94,9.74-25.38,28.09-28.25,31.21Z" style="fill:#ad6359"></path><path d="M264.82,259a94.32,94.32,0,0,1,10.07-8,94.11,94.11,0,0,1,12.57-6.32.12.12,0,0,0-.08-.22,49.85,49.85,0,0,0-22.69,14.37C264.55,259,264.66,259.09,264.82,259Z" style="fill:#263238"></path><path d="M258,253.2c3.34-2.55,9.24-7,21.61-11.24,0,0,0-.08,0-.07A44.69,44.69,0,0,0,257.86,253C257.67,253.22,257.76,253.37,258,253.2Z" style="fill:#263238"></path><path d="M254.37,250c5.84-4.12,10.05-6,17-8.71,0,0,0-.09,0-.08-8.26,2.28-11,4-17.18,8.61C254,250,254.14,250.2,254.37,250Z" style="fill:#263238"></path><path d="M271,269.37c-.92,1.83,0,2.33,3.33.78s15.07-10.47,17.84-6.11-14.44,15.83-19.71,18.88A37.8,37.8,0,0,1,255.18,288C258,285,265.61,275.44,271,269.37Z" style="fill:#ad6359"></path><path d="M194.12,283.4l-20,17.38S163.22,293.1,157.8,288c-7.18-6.75-6.36-11,5.71-10.56C171.59,277.73,194.12,283.4,194.12,283.4Z" style="fill:#BA68C8"></path><path d="M190.44,283.27c-3.08,2.33-6.13,4.69-9.08,7.2q-2.21,1.88-4.35,3.81c-1.43,1.29-2.73,2.74-4.17,4-.08.06,0,.19.11.11,1.38-1.34,3-2.51,4.4-3.77s2.91-2.53,4.37-3.79c2.93-2.5,5.85-5,8.84-7.45C190.64,283.32,190.53,283.21,190.44,283.27Z" style="fill:#263238"></path><path d="M185.42,291l-11.31,9.83S163.22,293.1,157.8,288c-3.37-3.17-5-5.78-4.48-7.62Z" style="opacity:0.1"></path><path d="M333.43,414c-2.65,1-81.43,2.51-84.39.7-.35-.18-1.63-26.24-1.63-26.24.09-.37-1.22-2.88-3.23-6.37-5.62-9.8-16.6-27.36-16.6-27.36l46.75-14.13,19.21,38.47,4.89,9.81s10.74,4.2,20.11,8.39l0,0c5.77,2.57,10.79,4.92,12,5.8C333.54,405.44,336.09,413.09,333.43,414Z" style="fill:#ad6359"></path><path d="M333.43,414c-2.65,1-81.43,2.51-84.39.7-.35-.18-1.63-26.24-1.63-26.24.09-.37-1.22-2.88-3.23-6.37l49.36-3,4.89,9.81s10.74,4.2,20.11,8.39l0,0c5.77,2.57,10.79,4.92,12,5.8C333.54,405.44,336.09,413.09,333.43,414Z" style="fill:#fff"></path><path d="M333.77,414.32c-2.74,1-81.62,2.32-84.66.47-1.16-.69-2.55-12.83-1.7-26.3l50.85-.81s29.45,13,32.57,15.4S336.5,413.35,333.77,414.32Z" style="fill:#BA68C8"></path><path d="M269.74,415.69c-11.22-.05-19.67-.32-20.63-.89-1.16-.7-2.55-12.84-1.7-26.31l1.24,0Z" style="opacity:0.1"></path><path d="M332.58,411.19c-13.23-.1-66.59.75-79.67,1.66-.11,0-.11.08,0,.08,13.11.39,66.46-.9,79.67-1.53C332.86,411.39,332.86,411.19,332.58,411.19Z" style="fill:#263238"></path><path d="M325.71,400.33a10.64,10.64,0,0,0-7.86,3.37,10.29,10.29,0,0,0-2.83,7.11c0,.08.15.08.16,0a12.27,12.27,0,0,1,10.53-10.3A.09.09,0,0,0,325.71,400.33Z" style="fill:#263238"></path><path d="M302.43,388.93c-5.29,0-11.39,2-14.61,6.38-.12.17.12.34.28.26a73.3,73.3,0,0,1,14.44-6A.33.33,0,0,0,302.43,388.93Z" style="fill:#263238"></path><path d="M306.55,390.46c-5.3,0-11.4,2-14.62,6.37-.12.17.12.35.28.26a72.91,72.91,0,0,1,14.44-6A.33.33,0,0,0,306.55,390.46Z" style="fill:#263238"></path><path d="M310.66,392c-5.29,0-11.4,2-14.61,6.37-.13.17.12.35.27.27a73,73,0,0,1,14.44-6A.33.33,0,0,0,310.66,392Z" style="fill:#263238"></path><path d="M314.77,393.5c-5.29,0-11.4,2-14.61,6.38-.12.17.12.34.27.26a73.2,73.2,0,0,1,14.44-6A.33.33,0,0,0,314.77,393.5Z" style="fill:#263238"></path><path d="M256.06,400.23c-5.94.12-5.76,9.35.19,9.23S262,400.11,256.06,400.23Z" style="fill:#263238"></path><path d="M307.91,374.71c-2.72-2.17-6.05.06-7.67,2.39a27.7,27.7,0,0,0-4.57,13.62c0,.11.08.15.16.15a.66.66,0,0,0,1,.41c3.73-2.67,8-5.07,10.83-8.8C309.25,380.3,310.48,376.77,307.91,374.71Zm-6.3,11.36c-1.8,1.36-3.65,2.62-5.4,4.05a82.69,82.69,0,0,1,2.85-7.9,29.25,29.25,0,0,1,1.87-3.6c1.12-1.77,6.24-6.28,6.86-.53C308.14,381.26,303.75,384.45,301.61,386.07Z" style="fill:#263238"></path><path d="M282.55,392.91c4.62.62,9.35-.77,13.87-1.55a.65.65,0,0,0,.38-1,.14.14,0,0,0,0-.22,27.77,27.77,0,0,0-12.91-6.29c-2.8-.49-6.73.32-7.08,3.79C276.48,390.94,279.86,392.54,282.55,392.91Zm-3.24-3c-3.66-4.48,3.14-5,5.19-4.52a29.43,29.43,0,0,1,3.88,1.19c2.64,1,5.1,2.29,7.62,3.51-2.24.25-4.44.68-6.67,1C286.67,391.54,281.32,392.42,279.31,390Z" style="fill:#263238"></path><path d="M240.62,381.61l55.47-8.41s-26.67-53.13-43.17-82c-9.17-16-34.28-16.81-46.49,2.4-16.31,25.66-29,49.7-36.21,63l-12.59,1.08,2.72,20.55,41.81,9.37c16,1.92,27.26-26.6,27.52-26.11C231.71,365.29,240.62,381.61,240.62,381.61Z" style="fill:#263238"></path><path d="M230,361.67c-1.58-3.23-2.81-6.66-4.21-10s-2.72-6.4-4.06-9.61c-2.72-6.48-5.54-12.92-8.18-19.44-1.48-3.65-2.84-7.35-4.23-11a.07.07,0,1,0-.14,0q1.6,5.24,3.35,10.42c-.31-.59-.61-1.19-.94-1.77-.89-1.59-1.81-3.17-2.73-4.74a.05.05,0,1,0-.09.06c.85,1.58,1.7,3.15,2.58,4.72.44.77.92,1.54,1.39,2.32a245.13,245.13,0,0,0,11.5,28.42c1.76,3.62,3.83,7.08,5.59,10.69C229.86,361.89,230,361.78,230,361.67Z" style="fill:#37474f"></path><path d="M241.86,371.75c-2.67-4.13-9-16.62-11.32-20.93-4.62-8.74-8.84-17.65-12.83-26.68-2.25-5.1-4.36-10.25-6.45-15.43,0,0-.07,0-.06,0a292.79,292.79,0,0,0,10.94,27.4c4.07,9,17.19,33.11,19.55,35.72C241.78,372,241.93,371.86,241.86,371.75Z" style="fill:#37474f"></path><path d="M207.43,315.61c-4.78,8.54-9.66,17-14.46,25.53q-3.65,6.47-7.25,12.94c-1.13,2-2.23,4.09-3.4,6.1a11.55,11.55,0,0,1-4.38,4.55,34,34,0,0,1-7,2.42c-2.69.79-5.37,1.64-8.08,2.39-.13,0-.07.22,0,.19,2.42-.65,4.86-1.21,7.29-1.8a65.81,65.81,0,0,0,6.61-1.79,10.75,10.75,0,0,0,4.9-3.38,40,40,0,0,0,3.43-5.73q7.2-13.15,14.25-26.37c2.68-5,5.34-10,8-15A0,0,0,1,0,207.43,315.61Z" style="fill:#37474f"></path><path d="M239.36,373.83c3.33-.61,6.73-.9,10.08-1.33l10.08-1.3c6.7-.88,29.52-4.51,31.24-5.08a.12.12,0,0,0,0-.22c-1.63,0-16.57,1.94-19.92,2.43-6.71,1-13.36,2.18-20,3.3-1.91.33-3.81.69-5.71,1s-3.81.74-5.72,1C239.21,373.66,239.25,373.85,239.36,373.83Z" style="fill:#37474f"></path><path d="M111.8,352.61c1.46.55,33,12.65,54.35,9.2,13.63-2.21,19.45-19.18,19.45-19.18l-4.16-19.05s4.41-7.51,2.92-15c-2-10-19.53-27.26-20.92-28.3-5.59-4.12-10.68-4.93-15.6-2.62C127.33,287.24,111.8,352.61,111.8,352.61Z" style="fill:#BA68C8"></path><path d="M158.86,324a66.66,66.66,0,0,1,10-.17c1.66.12,3.29.31,4.94.54.82.12,1.63.2,2.45.28a10.21,10.21,0,0,0,2.59,0,.06.06,0,0,1,0,.12,17.94,17.94,0,0,1-2.42.39,18.75,18.75,0,0,1-2.37,0c-1.68-.11-3.35-.29-5-.41-3.38-.24-6.77-.49-10.16-.48C158.71,324.27,158.7,324,158.86,324Z" style="fill:#263238"></path><path d="M151.31,328.35a73.57,73.57,0,0,1,8-1.86c1.36-.23,2.72-.38,4.09-.49.66-.06,1.32-.1,2-.14s1.45,0,2.17,0c.08,0,.1.11,0,.12-.68.07-1.35.25-2,.35l-2,.32c-1.36.21-2.71.44-4.07.64-2.72.4-5.42.82-8.13,1.32C151.2,328.6,151.17,328.39,151.31,328.35Z" style="fill:#263238"></path><path d="M161.81,279.15l-17.38.62c.27-.22.55-.42.82-.6l15.66-.57C161.21,278.77,161.51,279,161.81,279.15Zm4.25,3.59-25.69.92c-.18.19-.35.4-.52.6l26.76-1Zm4,4.18-33.13,1.19-.41.58,34.05-1.22Zm3.68,4.18-39.65,1.43c-.12.19-.23.39-.35.59l40.47-1.46C174,291.47,173.88,291.28,173.72,291.1Zm3.38,4.2-45.5,1.64-.3.58,46.23-1.66Zm3,4.22-50.7,1.82-.29.58,51.36-1.84C180.34,299.89,180.22,299.7,180.09,299.52Zm2.48,4.23-55.21,2c-.09.19-.17.39-.26.58l55.75-2C182.77,304.13,182.67,303.94,182.57,303.75Zm1.67,4.26-58.75,2.11c-.09.19-.17.38-.25.58l59.12-2.12v0Zm-60.52,6.49c-.07.2-.15.39-.22.58l61.13-2.19a5.63,5.63,0,0,0,0-.58Zm-1.65,4.38-.21.59,62.08-2.23c.05-.19.09-.38.14-.58Zm-1.56,4.38-.21.58,62.11-2.23c.09-.18.17-.37.26-.58Zm61.32,2.12L119,327.63c-.07.2-.14.39-.2.59L182,326Zm.94,4.28L117.61,332l-.18.57,65.46-2.34Zm.93,4.29-67.44,2.42c-.06.2-.12.39-.17.59l67.74-2.44Zm.94,4.29L115,340.74c-.06.2-.12.39-.17.58l70-2.51Zm.94,4.28-71.83,2.58c0,.2-.11.4-.16.59l71.83-2.58.18-.48Zm-73,7c0,.2-.11.4-.15.58l70.94-2.55.31-.59Zm2.23,4.24,1.51.52,64.28-2.31.42-.59Zm12.4,3.87,1.88.51,47.6-1.71.63-.6Zm17,3.71c1.1.17,2.21.32,3.32.46L169.4,361c.53-.19,1-.4,1.54-.63Z" style="fill:#fff"></path><path d="M149.09,282.29c.38,1.23,6.9,8.91,12.58,8.25,1.85-.22,1.11-10.38,1.11-10.38l.11-.76,1.62-10.67-14.75-8S148.94,281.77,149.09,282.29Z" style="fill:#ad6359"></path><path d="M149.76,260.75s-.26,6.71-.47,12.64a19.29,19.29,0,0,0,14.3,1.45l.92-6.11Z" style="fill:#263238"></path><path d="M178.18,249.26c4.89,18.3-5.52,23.3-9.47,24.35-3.58.95-15.9,3.74-22.66-14s.21-25.76,8.29-28.37S173.29,231,178.18,249.26Z" style="fill:#ad6359"></path><path d="M175.28,248.29a11.41,11.41,0,0,1-1.31,0,2.12,2.12,0,0,1-1.33-.27.69.69,0,0,1-.16-.81,1.69,1.69,0,0,1,1.55-.7,2.56,2.56,0,0,1,1.68.56A.73.73,0,0,1,175.28,248.29Z" style="fill:#263238"></path><path d="M162.68,250.91c.42-.14.79-.34,1.2-.51a2.12,2.12,0,0,0,1.13-.76.66.66,0,0,0-.16-.8,1.65,1.65,0,0,0-1.69-.07,2.39,2.39,0,0,0-1.34,1.14A.72.72,0,0,0,162.68,250.91Z" style="fill:#263238"></path><path d="M166.22,253s-.08.08-.07.13c.32,1.26.47,2.74-.58,3.41,0,0,0,.08,0,.07C166.94,256.08,166.72,254.11,166.22,253Z" style="fill:#263238"></path><path d="M164.81,251.9c-2.06.29-1.33,4.39.58,4.12S166.54,251.66,164.81,251.9Z" style="fill:#263238"></path><path d="M164.05,252.26c-.32.3-.6.77-1,.89s-.95-.23-1.35-.58c0,0-.07,0-.06.06.13.78.57,1.54,1.44,1.5s1.21-.82,1.27-1.64C164.34,252.33,164.17,252.14,164.05,252.26Z" style="fill:#263238"></path><path d="M173.14,251.43c0-.05.11,0,.12.09.17,1.28.59,2.72,1.81,2.95,0,0,.05.07,0,.07C173.64,254.58,173.1,252.67,173.14,251.43Z" style="fill:#263238"></path><path d="M174.05,249.91c2-.5,2.88,3.57,1,4S172.36,250.33,174.05,249.91Z" style="fill:#263238"></path><path d="M175,250c.37.15.77.47,1.16.42s.69-.58.88-1.06c0-.05.06,0,.07,0,.19.78.1,1.64-.61,2s-1.3-.29-1.65-1C174.75,250.18,174.81,249.94,175,250Z" style="fill:#263238"></path><path d="M167.92,264.18c.34.26.7.63,1.17.61a3.36,3.36,0,0,0,1.33-.5s.09,0,.07,0a1.73,1.73,0,0,1-1.53.91,1.37,1.37,0,0,1-1.16-1C167.77,264.18,167.87,264.14,167.92,264.18Z" style="fill:#263238"></path><path d="M172.48,258.43s.62,1.85.79,2.74c0,.08-.19.16-.49.24h0a4.34,4.34,0,0,1-4.43-.81.1.1,0,0,1,.11-.15,6.47,6.47,0,0,0,4.09.38c0-.26-1.17-3.12-1-3.16a8.13,8.13,0,0,1,2.12.08c-1.18-3.88-3-7.54-4.09-11.41a.13.13,0,0,1,.22-.11,66,66,0,0,1,4.93,12.11C174.84,258.84,172.87,258.52,172.48,258.43Z" style="fill:#263238"></path><path d="M172.21,261.19a4.87,4.87,0,0,1-1.59,1.88,2.26,2.26,0,0,1-1.29.36c-1-.05-1.2-.91-1.18-1.68a5.33,5.33,0,0,1,.18-1.23A6.3,6.3,0,0,0,172.21,261.19Z" style="fill:#263238"></path><path d="M170.62,263.07a2.26,2.26,0,0,1-1.29.36c-1-.05-1.2-.91-1.18-1.68A2.27,2.27,0,0,1,170.62,263.07Z" style="fill:#ff9bbc"></path><path d="M164.33,233.21a8.36,8.36,0,0,1,.15,4.91c-1.68,4.38-6.85,3.67-8.46,5.47s-.68,4.89-2,6.57c-1.88,2.33-4.72,1.71-4.94,3.19s-.83,6.2-2.64,6.94-12.77-29.46,11.6-30.41c0,0,3.23-1.62,8.61.58s9.2,12.07,9.2,12.07a2.92,2.92,0,0,0-1.07-1.24c-1.25-.94-1.78-1.86-2.69-2.47-1.44-.94-2.15-.48-3.63-1.4A16,16,0,0,1,164.33,233.21Z" style="fill:#263238"></path><path d="M163.85,231.9a16.17,16.17,0,0,1,1,3.66,6.82,6.82,0,0,1-.24,3.65A5,5,0,0,1,162,241.6c-1.12.51-2.38.73-3.59,1.33a3.88,3.88,0,0,0-1.53,1.35,5.1,5.1,0,0,0-.57,1.92,6.71,6.71,0,0,1-1.08,3.47,4.25,4.25,0,0,1-3.15,1.63c-1.22.09-2.6-.14-3.75.49,1.2-.54,2.48-.2,3.77-.2a4.56,4.56,0,0,0,3.49-1.63,6.76,6.76,0,0,0,1.26-3.68,4.63,4.63,0,0,1,.52-1.7,3.3,3.3,0,0,1,1.32-1.12c1.08-.55,2.35-.81,3.54-1.37a6.24,6.24,0,0,0,1.66-1.08,4,4,0,0,0,1.16-1.63,7.12,7.12,0,0,0,.1-3.88A16.3,16.3,0,0,0,163.85,231.9Z" style="fill:#263238"></path><path d="M164.41,233a12.75,12.75,0,0,0,1.44,3.25,6.23,6.23,0,0,0,2.64,2.49,9.49,9.49,0,0,0,1.74.52,2.91,2.91,0,0,1,1.38.78,9,9,0,0,0,1.17,1.35,3.94,3.94,0,0,0,1.61.77,4.43,4.43,0,0,1-1.41-1,9,9,0,0,1-1-1.42,3,3,0,0,0-1.59-1,10.06,10.06,0,0,1-1.63-.52,6.65,6.65,0,0,1-2.5-2.22A26.47,26.47,0,0,1,164.41,233Z" style="fill:#263238"></path><path d="M149.34,260.28s-5.1-5.11-7.49-3.19,2.16,9.82,5.47,10.43a3.2,3.2,0,0,0,3.93-2.44Z" style="fill:#ad6359"></path><path d="M143.21,259.32a0,0,0,0,0,0,.09c2.33.5,3.83,2.31,5,4.26a1.77,1.77,0,0,0-2.69,0c-.05,0,0,.13.08.1a2,2,0,0,1,2.26.3,9.33,9.33,0,0,1,1.32,1.55c.14.18.47,0,.36-.2l0-.05C149.08,262.58,146.24,259.08,143.21,259.32Z" style="fill:#263238"></path><path d="M149.64,265.87a.76.76,0,0,1-.55.92.76.76,0,1,1-.37-1.48A.76.76,0,0,1,149.64,265.87Z" style="fill:#fff"></path><path d="M147.53,265.11a.55.55,0,0,1-.4.66.55.55,0,1,1,.4-.66Z" style="fill:#fff"></path><path d="M141.81,259.85l-1.12.17a.39.39,0,0,1-.45-.33h0a.4.4,0,0,1,.33-.46l1.12-.17a.4.4,0,0,1,.46.33h0A.41.41,0,0,1,141.81,259.85Z" style="fill:#BA68C8"></path><path d="M142.13,261l-1,.4a.4.4,0,0,1-.52-.23h0a.39.39,0,0,1,.23-.51l1.06-.41a.39.39,0,0,1,.51.23h0A.4.4,0,0,1,142.13,261Z" style="fill:#BA68C8"></path><path d="M141.71,283.15c-22.69,23.62-55.79,83.45-59.88,92-2.77,5.83,27.67,21.18,29,16.94,1.65-5.42,28.17-72.38,35.22-97.64C149.9,280.55,146.4,278.26,141.71,283.15Z" style="fill:#ad6359"></path><path d="M112.23,388.12c-1.06,2.9-4.68,15.22-7.21,16.75s-15.79,1.21-22.48,1.21-8-1.86-7.89-4.17,14.14-2.74,14.14-2.74-18.74,5.38-23.46,6.25-15.57,3.62-17.14-.29c-.71-1.76,2.26-3.55,2.26-3.55s-4.56,1.34-5.28-.93c-.83-2.58,2.8-4,2.8-4s-2.85.57-2.92-1.53c-.14-4.69,17.68-7,17.68-7s-13.65,6.64-14.08,2.81C48,385.63,76,379.81,78.92,377.5a20,20,0,0,0,4.67-5.76Z" style="fill:#ad6359"></path><path d="M74.75,403.08a2,2,0,0,1,.63-1.79A5.8,5.8,0,0,1,77,400.23,23.47,23.47,0,0,1,80.84,399c2.64-.67,5.34-1.14,8-1.84a32.92,32.92,0,0,0-8.26.93,15.49,15.49,0,0,0-3.94,1.51A5.4,5.4,0,0,0,75,401,2.13,2.13,0,0,0,74.75,403.08Z" style="fill:#263238"></path><path d="M50.45,401.58c1.93-.47,3.83-1,5.73-1.56s3.78-1.13,5.67-1.7l5.65-1.77c1.88-.59,3.76-1.17,5.66-1.74a44.67,44.67,0,0,0-5.86,1.05c-1.93.44-3.83,1-5.73,1.57s-3.77,1.21-5.62,1.91S52.25,400.75,50.45,401.58Z" style="fill:#263238"></path><path d="M68.63,390.13a36.35,36.35,0,0,0-5.4.75,48.28,48.28,0,0,0-5.29,1.36,46.26,46.26,0,0,0-5.12,1.91,38.3,38.3,0,0,0-4.85,2.5c1.72-.59,3.4-1.26,5.11-1.83s3.42-1.16,5.14-1.69,3.45-1,5.18-1.55S66.88,390.61,68.63,390.13Z" style="fill:#263238"></path><path d="M65.88,385.66a33.37,33.37,0,0,0-8.61,1.81,33.72,33.72,0,0,0-7.92,3.84c2.77-1,5.47-2,8.22-2.95S63.08,386.56,65.88,385.66Z" style="fill:#263238"></path><path d="M117.86,308.63l26.49.93S148,296.75,149,289.37c1.34-9.76-2-12.55-11.08-4.62C131.82,290.05,117.86,308.63,117.86,308.63Z" style="fill:#BA68C8"></path><path d="M141.12,309.46a31.08,31.08,0,0,1,3.21,0c.39-1.52.76-3,1.16-4.56.21-.75.42-1.51.65-2.26s.49-1.78.72-2.51a.08.08,0,1,1,.15,0c-.19,1-.36,1.7-.54,2.55s-.32,1.51-.51,2.25c-.4,1.59-.75,3.29-1.23,4.85a25.79,25.79,0,0,1-3.62-.29S141.08,309.46,141.12,309.46Z" style="fill:#263238"></path><path d="M120.64,306.21c3.87-.13,7.72-.2,11.59-.11,1.93,0,3.85.13,5.78.23s3.84.41,5.76.49c.11,0,.09.18,0,.17-1.91-.18-3.87-.1-5.79-.18s-3.86-.14-5.79-.19c-3.85-.11-7.7-.22-11.55-.24C120.52,306.38,120.54,306.22,120.64,306.21Z" style="fill:#263238"></path><path d="M272.62,431.42c-.89-2.68-48.43-65.5-51.68-66.72-.37-.15-21.63,15-21.63,15-.87,1.17-41.27-7.37-41.27-7.37L157.63,421l73.6-1.56s9.94,5.84,19,10.6h0c5.6,2.95,10.55,5.44,12,5.81C265.93,436.83,273.52,434.09,272.62,431.42Z" style="fill:#ad6359"></path><path d="M262.25,435.89c-1.42-.37-6.36-2.85-12-5.81h0c-9.09-4.76-19-10.61-19-10.61l-16.38.35-25.64-41.37c5.63,1,9.83,1.59,10.11,1.22,0,0,21.24-15.13,21.62-15,3.24,1.2,50.79,64,51.68,66.71S265.94,436.84,262.25,435.89Z" style="fill:#fff"></path><path d="M273.05,431.51c-.93-2.76-48.69-65.54-52-66.79-1.26-.47-11.66,5.95-21.71,14.95l30.84,40.44s28.46,15.08,32.26,16.05S274,434.26,273.05,431.51Z" style="fill:#BA68C8"></path><path d="M269.86,432.51c-8.27-10.32-40.63-52.76-48-63.6-.06-.09,0-.13.06-.05,8.42,10.06,40.43,52.76,48.12,63.52C270.19,432.61,270,432.73,269.86,432.51Z" style="fill:#263238"></path><path d="M257.08,433.84a10.64,10.64,0,0,1-2.22-8.26,10.25,10.25,0,0,1,3.83-6.62c.06,0,.15.07.1.13a12.27,12.27,0,0,0-1.58,14.65A.08.08,0,0,1,257.08,433.84Z" style="fill:#263238"></path><path d="M233.72,422.61c-3.26-4.17-5.49-10.18-4-15.42.06-.2.35-.12.38.05a72.89,72.89,0,0,0,4.23,15.05A.33.33,0,0,1,233.72,422.61Z" style="fill:#263238"></path><path d="M237.46,424.9c-3.26-4.17-5.49-10.18-4-15.42.06-.21.35-.12.38,0A72.47,72.47,0,0,0,238,424.58.34.34,0,0,1,237.46,424.9Z" style="fill:#263238"></path><path d="M241.2,427.19c-3.26-4.17-5.49-10.19-4-15.42.05-.21.34-.12.37.05a73,73,0,0,0,4.24,15A.34.34,0,0,1,241.2,427.19Z" style="fill:#263238"></path><path d="M244.94,429.47c-3.26-4.16-5.49-10.18-4-15.42.05-.2.34-.12.37.06a73.63,73.63,0,0,0,4.24,15A.33.33,0,0,1,244.94,429.47Z" style="fill:#263238"></path><path d="M213.89,379.2c-3.58-4.74,3.77-10.31,7.36-5.57S217.48,383.94,213.89,379.2Z" style="fill:#263238"></path><path d="M231.86,430.68c1.2-4.5.42-9.37.21-13.95a.65.65,0,0,0-.92-.5.14.14,0,0,0-.22,0,27.84,27.84,0,0,0-7.86,12c-.83,2.71-.52,6.71,2.87,7.5C229.15,436.46,231.16,433.31,231.86,430.68Zm-3.34,2.85c-4.9,3.07-4.53-3.74-3.83-5.72a29.93,29.93,0,0,1,1.67-3.7A83,83,0,0,1,230.8,417c0,2.25.12,4.49.16,6.75C231,426.42,231.22,431.84,228.52,433.53Z" style="fill:#263238"></path><path d="M216.87,403.28c-2.5,2.42-.71,6,1.4,7.9a27.76,27.76,0,0,0,12.94,6.25.13.13,0,0,0,.16-.14c.39-.08.76-.49.53-.9-2.18-4-4-8.61-7.37-11.85C222.57,402.65,219.23,401,216.87,403.28ZM227.34,411c1.13,2,2.14,4,3.34,5.87-2.52-1.23-5.08-2.34-7.47-3.81a30,30,0,0,1-3.34-2.31c-1.62-1.34-5.45-7,.33-6.88C223.39,403.88,226,408.62,227.34,411Z" style="fill:#263238"></path><path d="M179.16,361S107.9,346.88,85,351.54C53,358,47.08,395.86,70.81,410c30.06,17.86,141.77,14.41,141.77,14.41l-28.92-49a290.3,290.3,0,0,0-75.45-8l71.3,12.32Z" style="fill:#263238"></path><path d="M185.58,378.5a1.83,1.83,0,0,1-.06-.25,1.94,1.94,0,0,0-.05-.2l-.12-.48c-.1-.32-.21-.64-.34-.95s-.26-.63-.41-.94a6.91,6.91,0,0,0-.54-.86s-.05,0-.07-.06l-.06,0a89939000543.76,89939000543.76,0,0,0-.14-.06c-4.89-.91-38.13-5.67-43.08-6.23s-25.59-2.71-35.6-2.54l-2.81.09a6,6,0,0,0-.61-.15c-.48-.12-1-.23-1.45-.33-.9-.17-1.81-.3-2.72-.44-1.89-.29-3.79-.49-5.67-.84-.12,0-.16.15,0,.17,1.9.42,3.76,1,5.65,1.38l1.65.35c-3.67.19-7.34.48-11,.81-.11,0-.12.19,0,.18,5-.29,10-.33,15-.24s25.49,1.94,35.46,3c5.59.58,39.49,5.53,45.11,5.76h.07a3.12,3.12,0,0,0,.15.39q.23.45.48.9c.16.29.31.57.5.85l.27.4.14.21a.8.8,0,0,1,.15.21A.09.09,0,1,0,185.58,378.5Z" style="fill:#37474f"></path><path d="M202.15,421.38c-1.8-2.87-3.32-5.92-5-8.88s-3.29-5.92-4.94-8.88c-3.29-5.91-15.1-25.76-16.26-27.15a.11.11,0,0,0-.19.11c.55,1.54,7.92,14.69,9.62,17.62,3.4,5.86,7,11.61,10.48,17.4,1,1.65,2,3.28,3.06,4.93s2.1,3.25,3,4.94C202.05,421.57,202.21,421.48,202.15,421.38Z" style="fill:#37474f"></path><path d="M175.65,381.41c-3-.71-6-1.17-9-1.73l-9-1.69c-6-1.11-38.21-7.21-65.16-9.62-.15,0-.15.22,0,.23,12.17.55,50.84,7.53,62.73,9.53,3.36.57,6.72,1.14,10.07,1.73s6.81,1.31,10.24,1.75C175.73,381.62,175.78,381.44,175.65,381.41Z" style="fill:#37474f"></path></g><g id="freepik--speech-bubble--inject-36"><path d="M506.3,211.83a23.85,23.85,0,0,1-39.86,15.09l-11.94,1.75,6-10.32a23.52,23.52,0,0,1-1.63-11.48,23.86,23.86,0,1,1,47.46,5Z" style="fill:#fff"></path><path d="M506.3,211.83a23.93,23.93,0,0,1-4.82,12.09,21.71,21.71,0,0,1-4.68,4.63,24.12,24.12,0,0,1-12.18,4.73,22.87,22.87,0,0,1-3.31.06A20.29,20.29,0,0,1,478,233a24.05,24.05,0,0,1-11.81-5.83l.29.09-11.93,1.83-.86.13.43-.76,5.94-10.34,0,.41A24.16,24.16,0,0,1,490,186.48a24.53,24.53,0,0,1,9.2,5.65A24,24,0,0,1,506.3,211.83Zm0,0a23.69,23.69,0,0,0-16.45-25,23.69,23.69,0,0,0-10.61-.8,23.44,23.44,0,0,0-9.85,3.89,24.62,24.62,0,0,0-7.14,7.79,23.46,23.46,0,0,0-3,10.09,24,24,0,0,0,1.68,10.4l.09.21-.12.2-6,10.29-.43-.63,11.95-1.67.16,0,.12.11a23.52,23.52,0,0,0,11.42,5.88,20.79,20.79,0,0,0,3.24.4,23,23,0,0,0,9.64-1.41,22.51,22.51,0,0,0,5.75-3.1,25.36,25.36,0,0,0,2.52-2.11,26.69,26.69,0,0,0,2.17-2.46A24,24,0,0,0,506.3,211.83Z" style="fill:#263238"></path><path d="M473.34,210.3a2.6,2.6,0,1,1-2.59-2.6A2.59,2.59,0,0,1,473.34,210.3Z" style="fill:#263238"></path><circle cx="482.86" cy="210.3" r="2.59" style="fill:#263238"></circle><circle cx="494.97" cy="210.3" r="2.59" style="fill:#263238"></circle></g></svg>